<svg width="10" height="12" viewBox="0 0 10 12" fill="none" xmlns="http://www.w3.org/2000/svg">
<path d="M9.60838 5.64705C9.40466 5.44333 9.07448 5.44333 8.87076 5.64611L8.87029 5.64565L6.55154 7.9644C6.4588 8.05572 6.33189 8.1124 6.19139 8.1138H3.68764C3.53683 8.1138 3.4146 7.99157 3.4146 7.84076C3.4146 7.68949 3.53683 7.56726 3.68764 7.56726H5.60271V7.56632C5.89073 7.56586 6.12397 7.33216 6.12397 7.04413C6.12397 6.75609 5.89074 6.52239 5.60271 6.52193H3.15423C2.699 6.52193 2.25643 6.61325 1.9445 6.90456H1.94122L1.9089 6.93687C1.90656 6.93921 1.90422 6.94109 1.90188 6.9439L0.258969 8.57374C0.158745 8.67724 0.108634 8.81165 0.11144 8.9456V10.811C0.11144 11.1 0.345137 11.3337 0.633639 11.3332C0.777883 11.3332 0.908556 11.2747 1.00268 11.1806C1.00409 11.1792 1.00549 11.1792 1.0069 11.1782L2.31123 9.87437C2.36602 9.82192 2.43721 9.79569 2.50793 9.79803C2.57537 9.80037 3.04511 9.79803 3.12566 9.79803L3.12519 9.79709C3.13455 9.79709 3.14439 9.79803 3.15423 9.79803L5.91742 9.79756C5.93897 9.79662 5.96004 9.79569 5.98299 9.79569C6.1263 9.79569 6.25556 9.73761 6.35017 9.64395L9.60889 6.38523L9.60842 6.38476C9.81214 6.18104 9.81214 5.85086 9.60842 5.64714L9.60838 5.64705Z" fill="#FCFCFC"/>
<path d="M0.263338 6.35269C0.467062 6.55641 0.797238 6.55641 1.00096 6.35362L1.00143 6.35409L3.3197 4.03534C3.41243 3.94401 3.53935 3.88734 3.67985 3.88594H6.18408C6.33488 3.88594 6.45712 4.00817 6.45712 4.15897C6.45712 4.31024 6.33488 4.43248 6.18408 4.43248H4.26901V4.43341C3.98099 4.43388 3.74775 4.66758 3.74775 4.95561C3.74775 5.24363 3.98098 5.47734 4.26901 5.47781H6.71701C7.17224 5.47781 7.61481 5.38648 7.92674 5.09518H7.93002L7.96234 5.06286C7.96468 5.06052 7.96702 5.05865 7.96936 5.05584L9.61179 3.42552C9.71201 3.32202 9.76212 3.1876 9.75932 3.05366L9.75979 1.1887C9.75979 0.899735 9.52609 0.666037 9.23759 0.666505C9.09334 0.666505 8.96267 0.725047 8.86854 0.819178C8.86714 0.820583 8.86573 0.820583 8.86433 0.821519L7.56 2.12537C7.5052 2.17782 7.43401 2.20405 7.3633 2.20171C7.29586 2.19937 6.82612 2.20171 6.74557 2.20171L6.74604 2.20264C6.73667 2.20264 6.72684 2.20171 6.717 2.20171H3.9538C3.93226 2.20264 3.91118 2.20358 3.88823 2.20358C3.74493 2.20358 3.61567 2.26165 3.52106 2.35532L0.261858 5.61404L0.262326 5.61451C0.0595375 5.8187 0.0595374 6.14888 0.263263 6.3526L0.263338 6.35269Z" fill="#FCFCFC"/>
</svg>
