<?xml version="1.0" encoding="utf-8"?>
<!-- Generator: Adobe Illustrator 22.0.0, SVG Export Plug-In . SVG Version: 6.00 Build 0)  -->
<svg version="1.1" id="Layer_1" xmlns="http://www.w3.org/2000/svg" xmlns:xlink="http://www.w3.org/1999/xlink" x="0px" y="0px"
	 viewBox="0 0 1440 598" style="enable-background:new 0 0 1440 598;" xml:space="preserve">
<style type="text/css">
	.st0{fill:#E2EDF8;}
	.st1{fill:#48B349;}
	.st2{opacity:0.15;fill:#2D386E;enable-background:new    ;}
	.st3{opacity:0.75;fill:#2D386E;enable-background:new    ;}
	.st4{fill:#FFFFFF;}
	.st5{opacity:0.25;fill:#FF9461;enable-background:new    ;}
	.st6{fill:#FF9461;}
</style>
<path class="st0" d="M1434.4,319.6c-0.6,0.2-1.3,0.2-1.9,0.4c-1.9,0.4-4.7,1.7-2.6-2.4c0.6-1.3-0.4-1.7-1.5-2.1
	c-2.8-0.9-6-1.9-8.8-0.9c-3,0.9-4.9-0.2-6.5-2.2c-1.1-1.3-2.1-1.7-3.5-1.1c-4.7,1.7-8.8,0.9-13.2-0.9c-8.4-3.7-15.8-9.3-25.2-11
	c-0.9-0.2-1.9-0.9-2.4-1.7c-2.1-2.8-5-3.4-8-4.3c-6.3-1.9-13.2-2.8-18.3-7.8c-1.1-1.1-2.8-1.1-4.5-0.6c-6.5,1.7-11.9,6.3-18.1,8.6
	c-3.9,1.5-3.9,1.9-1.1,4.8c1.1,1.1,1.9,2.4,1.7,3.9c-0.4,1.9-2.2,1.7-3.7,1.9c-2.6,0.2-5,1.3-7.3,2.6c-3.7,2.1-7.6,2.6-11.8,1.1
	c-3-1.1-4.3,0.2-5,3.4c-0.9,4.3-2.2,8.8-7.3,10.4c-3.5,1.1-5.4,3.5-5.4,7.3c0,1.5-0.6,3-1.9,3.4c-3.9,0.9-4.5,6.2-8.8,6.5
	c-0.4,0-0.7,0.7-0.7,1.1c-1.3,3.5-4.5,4.3-7.5,4.5c-3.7,0.2-7.6-0.2-11-1.7c-4.5-1.9-7.8-6.9-5-10.8c0.6-0.7,1.1-1.5,0.2-2.1
	c-0.6-0.4-0.9,0.4-1.1,1.1c-4.1,2.6-3.9-1.1-4.7-3.4c-2.4,1.3-3.7,4.1-6.5,4.5c-0.2-0.2-0.4-0.4-0.6-0.2c5-2.8,8-6.5,6.7-12.7
	c-0.4-1.9-1.3-2.8-2.8-3c-2.1-0.2-1.9,1.5-2.1,2.8c-0.2,1.9,0.4,3.7,0.9,5.4c0.2,1.1,0.9,2.6-0.7,3.2c-1.9,0.6-1.9-1.1-2.2-2.2
	c-2.1-4.3-3-9.1-7.1-12.3c-1.3-0.9-1.7-3-1.9-4.7c-0.6-4.8,0-10.1-1.5-14.7c-0.8-2.6,0.2-4.1,2.1-5.8c3.5-3,3.5-8.9,0.4-12.3
	c-0.8-0.7-1.7-1.3-1.9-2.2c-0.8-2.2-3.6-3.7-2.1-6.7c1.5-2.8,0.4-5.2-2.8-5.6c-2.1-0.2-4.1-0.2-6.3,0.4c-4.3,1.1-9.5,1.3-12.5-1.5
	c-4.8-4.3-10.6-6.2-16.2-8.6c-11-4.7-21.6-2.1-29.3,7.1c-0.9,1.1-2,1.5-3.4,2.1c-4.5,1.7-9.5,0.4-14,2.4c-1.5,0.7-2.6,0.9-2.2,3.4
	c0.9,4.8-1.9,9-6.2,10.8c-1.7,0.7-3,2.6-3,4.3c0,1.9,2,1.5,3.5,1.7c0.6,0,1.3,0.4,1.7,0.6c1.1,0.7,1.9,1.7,3.5,0.7
	c2.4-1.3-0.9-2.4,0-3.4c7.1,1.1,12.9,4.7,19,7.8c1.5,0.7,3.7,2.2,2.8,3.9c-2.1,3.5,0.2,6,1.7,8.6c2,3.4,5.8,4.7,8.8,6.9
	c1.7,1.3,3.7-0.9,5.6-1.5c1.7-0.6,3.5-1.3,4.7,0.7c1.1,2.2,2.2,2.1,4.1,1.1c0.8-0.4,1.7-1.1,2.8-0.4c2.6,1.5,5,0.6,7.5-0.4
	c3.4-1.3,6.9-1.7,10.6-0.6c3.7,1.1,7.3,0.4,10.8-1.7c5.2-3,5.2-2.8,6.3,2.8c0.4,1.9,0.2,3.7-1.5,4.7c-2.6,1.1-3.4,2.8-2.6,5.6
	c0.2,0.7,0.4,1.9-0.4,2.6c-1.7-0.7-1.3-3.2-3.2-3.4c-0.8,1.7,0.6,3.7-1.3,5.2c-0.7-4.5-0.7-4.3-5.2-4.7c-1.7-0.2-3.4-0.7-4.8-1.9
	c-4.3-3.4-8.4-2.8-11.7,1.5c-1.9,2.4-3.6,5.2-6.2,7.1c-1.5,1.1-2.6,0.9-4.3,0.2c-7.1-3.9-14.2-4.1-21.3,0c1.7,3,3,6,7.3,4.3
	c1.1-0.4,2.4,0,3.5,0.7c3.9,2.2,8.4,3.9,9.5,9.1c0.2,0.9,0.9,3.5,3.4,0.9c1.3-1.5,3-0.2,2.8,2.1c-0.2,1.7,0,2.8,1.9,3.9
	c2.4,1.5,2,3.7-0.8,4.7c-2.1,0.7-3.2,1.9-2.6,4.1c0.8,2.4,1.3,4.8,2.4,7.1c1.1,2.2,2.1,6,6.2,2.8c0.6-0.6,2-0.2,3,0
	c4.1,0.9,5.4-2.8,8-4.7c2.2-1.5,0.4-2.8,0-4.1s0.6-2.1,1.3-2.8c1.5-2.1,6-2.8,3.3-6.9c0-0.2,0.4-0.7,0.6-0.7
	c3.4-0.9,2.8-3.7,2.4-5.8c-0.6-4.5,3-6.2,5.2-8.8c0.7-0.9,1.3-0.2,1.7,0.6c0.9,1.7,0.9,3.2-0.8,4.1c-3.2,1.9-4.7,4.3-3.9,8
	c0.2,0.6,0,1.3-0.4,1.7c-2.6,2.6,0.2,4.3,0.9,6.2c0.2,0.4,1.1,1.3,1.7,0.2c1.9-3.5,2.4-0.6,3.2,0.6c1.3,2.1,2.6,4.8,5,3.9
	c4.1-1.7,4.8-0.4,4.5,3.4c-0.2,2.1,1.7,2.2,3,3c1.7,0.9,1.7-0.7,2-1.7c1.3-2.2,2.6-0.9,3.7,0.4c1.5,2.1,2.8,3.7,4.8,0.4
	c0.6-0.9,1.7-1.3,3-1.1c2.8,0.2,5.4,0.4,8.2,0.9c-1.3,2.4-3,0.9-4.5,0.9c-1.7-0.2-3.9-1.7-4.7,1.7c-0.7,3.9,2.8,7.8,7.1,7.1
	c2.6,3.9,7.5,6.5,11,6c7.1-0.7,13.4,2.6,20.3,1.5c1.3-0.2,2.4,0.4,3.2,1.5c2.2,2.8,5.4,3.7,8.6,4.1c2.8,0.4,5.2,1.5,7.6,2.6
	c5.2,2.6,10.1,5.8,16.2,6.3c2.8,0.2,6.3,0.2,8.2,1.5c5.8,4.1,12.9,6.2,18.1,11c1.1,1.1,2.8,2.6,4.1,2.4c3.5-0.7,2.6,1.7,2.6,3.4
	c0,0.7,0,1.5,0,2.2c-0.2,3,0.6,4.3,3.7,2.8c1.7-0.7,3.3-1.5,5.2-0.7c0,1.5-0.9,1.1-1.5,1.5c-1.5,1.1-6.7,1.9-0.6,4.1
	c0.4,0.2,0.7,0.6,0.6,0.7c-0.8,3.2,1.9,5.4,2.2,8c0.8,5.6,3.6,9.7,7.7,13.2c1.7,1.5,3.2,3,2.2,5.4c-0.6,0.6-1.1,1.1-1.7,1.7
	c0.2,0.6,0.6,1.1,0.7,1.7c0,0.7,0,1.3,0,2.1c-0.9,0.4-2.2-0.6-2.6,0.6c-0.4,0.9,0.8,1.7,1.5,2.4c2.4,2.4,5.2,4.5,8.8,5.4
	c-1.7,1.1-3.7,0.4-5.6,0.6c-0.5,0-0.7,0.2-0.7,0.4c-0.2,0.2-0.4,0.4-0.2,0.9c4.1,1.3,5.8,5.6,8.9,7.6c3.7,2.4,4.3,4.3,1.5,7.5
	c-0.4,0-0.7,0-1.1-0.2c0.6-2.1,1.5-4.1-2.1-4.7c-0.7-0.2-1.5-1.5-2.1-2.4c-1.3-2.2-3.2-3.4-5.6-3.2c-5.8,0.4-11.4,1.1-16.4,4.5
	c-7.6,5.2-10.4,13.6-14.2,21.4c-0.9,2.1-2,4.1-1.9,6.7c6.5-2.4,12.7-1.9,19-0.6c2.6,0.6,4.8-0.6,6.9-1.9c0.9-0.7,2.1-1.5,3-2.2
	c0,0.4,0.2,0.7,0.2,1.3c-1.5,1.3,0,1.7,0.8,1.9c1.5,0.4,3,0.4,4.5,0.6c4.8,0.7,5,0.7,3.5-3.9c0.2-0.6,0.6-1.1,0.7-1.9
	c0.4,0.7,0.8,1.5,1.3,2.4c1.7-3.2,4.5-4.8,7.6-6c0.9-0.4,1.9-0.7,2.6,0.4c1.7,3.2,4.7,3,7.1,2.1c4.1-1.7,8.2-1.9,12.3-2.2
	c2.4-0.2,5.4-0.6,5.4-4.3c0-2.2,1.9-2.2,3.9-2.8c-0.6,1.5-1.3,2.4-1.3,3.4c-0.2,2.8-5,3.9-3.2,7.1c1.5,2.6,4.3,4.1,6.7,6
	c0.8,0.6,1.3,1.1,2.1,1.7c3.7,3,7.1,6.3,10.1,10.3c2.8,3.9,5.8,8,10.8,10.1c0.4,0.7,0.9,0.6,1.5,0.6c0-23.3,0-46.4,0-69.7
	c0-6,0-11.9,0-18.1c0-38.8,0-77.6,0-116.2C1437.6,319.6,1436.1,319.1,1434.4,319.6z"/>
<path class="st1" d="M605.1,509.1c-3.4-1.3-5-4.3-4.8-7.3c0.6-5.4,2.1-10.8,3-16.2c0.4-2.6,0-3.7-1.9-4.1c-5.2-0.9-9.7-5.2-15.7-2.4
	c-1.1,0.6-2.2,1.5-3.7,1.3c-4.7-0.4-9.5-1.3-14,1.3c-0.7,0.4-1.1-0.2-1.7-0.2c-3.5-0.6-6.3-3.4-9.7-4.1c-3.7-0.9-3.7-3.5-4.1-6.3
	c-0.2-1.3,0-2.8,0-4.1c0-1.9-0.9-3.2-2.8-2.8c-3.4,0.6-3.4-2.2-3.7-3.7c-0.7-5.4-0.6-5.2-4.8-6.7c-2.8-0.9-5.4-0.7-8.2-0.2
	c-2.8,0.6-5.4,0.7-6.9-2.4c-0.2-0.6-0.7-1.1-1.5-0.7c-2.8,1.5-5.6-0.4-8.4-0.2c-2.8-4.3-3.5-4.7-8.2-2.6c-3.9,1.7-9.5-0.6-10.6-4.5
	c-0.7-2.6-2.1-4.7-5-4.3c-3.2,0.4-6.9,0.2-7.6,4.5c-0.6,3.4-2.6,6-4.3,8.8c-0.9,1.7-0.7,4.3-3.9,3.9c-2.2-0.2-4.3-0.6-5.8-2.2
	c-0.7-0.7-1.3-1.1-2.2-0.6c-6.7,3.7-12.9,0.4-19.2-1.9c-0.9-0.4-1.5-0.4-2.2,0.2c-3.4,2.4-7.5,2.8-10.6,1.1
	c-3.7-2.1-6.9-0.4-10.3-0.9c-3.2-0.2-7.1-0.4-7.8-3.7c-0.9-4.3-2.1-8-5.6-10.4c-0.2-0.2-0.4-0.4-0.4-0.6c-2.2-3.7-2.6-3.9-6.3-1.3
	c-1.1,0.7-1.9,0.9-3,0.4c-2.2-1.1-4.7-1.5-6.7-3.2c-0.6-0.6-1.3-0.9-2.1-0.4c-4.3,3.2-7.8-0.4-10.6-2.2c-3-2.1-4.5-6.5-9.5-4.7
	c-0.6,0.2-1.5-0.9-2.2-1.3c-1.1-0.6-1.9-0.6-2.2,0.9c-0.4,2.4-0.9,4.7-1.3,7.1c-0.2,0-0.4,0-0.6,0c-0.6-0.9,0.9-3.5-1.3-2.8
	c-2.4,0.7-4.7-0.4-6.9,0c0-0.4,0-0.6,0-0.9c0.4-2.1-1.1-1.7-2.1-1.7c-3,0-6.2,1.5-8.8-1.3c-0.4-0.4-2.2-0.9-3.7,0.4
	c-2.1,1.7-3.9,1.3-4.3-1.9c0-0.7-0.4-1.3-0.9-1.5c-0.7-0.2-1.1,0.4-1.5,0.9c-3.2,4.3-6.3,8.6-6,14.5c0.2,2.6-1.1,5.2-4.8,4.3
	c-0.7-0.2-1.3-0.4-1.3,0.4c-0.2,3.9-4.7,5.8-4.7,9.7c1.1,0.6,2.2-0.2,3.4-0.2c6.2-0.2,12.7-3.2,18.5,1.7c0.7,0.6,1.7,0.7,2.4,1.5
	c1.1,0.9,2.6,2.1,3.9,0c0.2,0,0.4,0,0.7,0c1.5,0.4,3.4-0.6,4.3,1.3c0.9,2.1-0.6,3-1.7,4.5c-4.5,6-3.5,8,4.3,8.9
	c0.6,0,0.9,0.2,1.5,0.2c4.1,0.4,8.2,0.2,12.3,0.9c5.4,0.9,11,0.7,16,3.4c1.9,0.9,3.4,2.4,5,3.4c5.4,2.8,11.6,3.2,17.5,4.3
	c2.2,0.4,5.6,1.7,6.5-2.6c0.2-1.1,1.7-0.9,2.6-0.9c1.5,0,3-0.2,4.3-0.7c0.2,0,0.6,0,0.7,0c1.1,0,2.4,0,3.5,0
	c0.2,1.1-2.4,1.5-0.6,2.2c1.7,0.7,3.9,2.1,5.6-0.2c0.9-1.3,2.2-1.1,3.7-1.3c5-0.9,9.3,2.4,14.2,2.6c4.8,0.2,9.1,3,14,3.4
	c0.2,0,0.6,0,0.7,0c0.4,1.7,2.1,1.7,3.2,2.2c5.8,2.4,11.2,5.6,17.2,7.6c1.1,0.9,2.2,0.9,3.4,0.4c0.4-0.2,0-0.7-0.6-1.1
	c0-0.4,0.2-0.7,0.2-1.1c0.9,0,1.5,0.6,1.7,1.5c0.2,1.1,0.7,1.1,1.3,0.2h0.4h0.4c0.2,0.9,0.9,1.7,1.9,1.5c2.8-0.4,5.4,1.3,8.4,0.7
	c2.1-0.6,4.7-0.2,6.5,0.6c5.4,2.1,5.6,2.4,9.7,0.4c0.7-0.4,1.5-0.7,2.2-0.6c8,1.5,16,2.2,23.9,4.5c4.3,1.3,8,0.2,11.6-2.2
	c3-2.2,9.7-2.8,12.3-0.4c0.9,0.9,2.2,1.1,3.2,1.7c4.1,2.1,8.6,3.2,12.9,5c3.4,1.7,7.5,3.5,10.8,2.6c3.7-1.1,4.7,0,6,2.8
	c0.9,1.7,3,1.7,4.7,1.9c0.6,0,1.5-0.4,1.5-1.3C608,509.5,606.2,509.5,605.1,509.1z"/>
<path class="st0" d="M653,344.8c0.9-3,2.4-5.8,4.8-7.8c1.9-1.7,1.1-2.8,0-3.9c-2.2-2.2-2.4-4.7-0.9-7.3c1.1,0.2,1.3,0.9,1.7,1.7
	c0.7,1.3,1.3,2.6,1.9,3.9c3.9-3.2,4.7-6.9,2.1-11c-1.7-2.6-0.6-4.3,2.4-4.7c1.7-0.2,2.4,0.9,3.5,1.5c1.1-2.6,1.1-2.6,0.2-4.8
	c3-0.6,2.4-3.9,2.1-4.7c-0.9-3-4.5-2.8-7.3-3.5c3-2.1,4.3-6.3,2.8-9.3c-1.3-2.8-3.2-0.2-4.8,0c-0.9,0-1.7-0.4-1.9-0.9
	c-0.4-0.9,0.7-1.1,1.3-1.5c2.2-1.1,4.5-2.2,6.7-3.4c0.9-0.6,2.6-0.9,2.1-2.1c-1.7-4.1,1.5-4.7,3.9-5.6c3.5-1.5,4.3-3.2,2.2-6.5
	c-1.1-1.9-0.7-3.4,0.6-5.2c0.2,0.7,0.6,1.1,0.4,1.5c-0.4,2.6,0.4,5.4,2.6,6c2.4,0.7,5-0.9,6.5-3.4c0.7-1.5,1.5-3,2.6-4.1
	c2.4-2.6,3.5-7.5,9.1-5.2c1.9,0.7,5.8-0.7,5.2-3c-0.7-3.4,0.6-6,0.6-8.9c-2.2,0-3.2,2.4-5.4,2.2c1.3-5.2-1.5-10.8,2.2-15.5
	c0.2-0.2-0.2-0.9-0.4-1.5c-2.1-4.7,0-8.8,2.6-12.3c1.9-2.6,3.5-5.4,4.3-8.6c0.9-3.7,4.3-5.4,8-4.1c0.6,0.2,1.1,0.4,1.9-0.4
	c-1.3-2.2-2.6-4.7-3.9-6.9c-0.4-0.6-0.9-1.3-0.2-2.1c0.7-0.6,1.5,0,2.1,0.4c0.6,0.4,1.3,0.9,1.5,1.5c1.3,5,5.6,5.2,9.5,6.3
	c4.8,1.3,9.9-0.9,14.7,1.1c1.3,0.6,6.5-3.9,6.7-5.4c0.2-0.9-0.4-1.7-1.1-1.7c-3.2-0.6-4.7-2.8-6.5-4.8c-1.7-1.9-3.4-4.1-6.2-4.5
	c-1.3-0.2-2.8-0.6-3.4-1.5c-1.3-3.2-4.3-4.1-6.7-5.6c-3.9-2.2-7.1-5.6-10.6-8.4c-0.9-0.7-1.3-1.7-1.3-3c0-1.9,0-3.7-1.1-5.4
	c5.2,0.2,8.8-4.5,7.1-8.4c-1.3-3.5-4.1-5.8-7.3-7.6c-1.5-1.1-0.2-3.9-2.2-4.5c-2.4-0.7-2.6-2.1-2.4-4.1c0.6-3.5-1.1-5.6-4.3-7.1
	c-2.2-1.1-5-1.1-7.5-3c2.2-1.1,4.3-1.9,6.2-2.8c-0.7-0.4-1.7-0.7-1.7-1.1c-0.2-2.6-1.7-3-4.1-3c-1.7,0-3.7-1.7-3.5-3.7
	c0.2-1.9,2-2.6,3.9-2.8c1.3-0.2,2.8,0,4.1,0.2c3,0.6,6,0,9-0.6c0.9-0.2,2.6-0.2,1.3-2.6c-1.3-2.6-2.4-3.9-5.2-4.3
	c-0.9-0.2-3.5-1.1-2.2-2.1c1.9-1.5,0.4-1.7-0.4-2.2c-1.1-0.9-2.4-1.5-3.7-2.4c-0.9-0.6-0.9-0.7,0.6-1.9c2.4,1.7,3.9,0.6,5.2-1.5
	c0.6-0.9,1.7-1.7,1.3-3c-0.9-3.5,1.3-3.7,3.2-2.2c5,3.7,10.1,4.1,15.5,1.3c0.7-0.4,1.7-0.4,2.6-0.6c2.2-0.4,4.5-0.9,6.7-0.7
	c1.5,0,2.2-1.1,3-2.1c0.6-0.7-0.2-1.9-0.6-1.9c-2.6,0.2-3.7-1.9-5.8-2.8c-3.5-1.9-6.2-4.7-8.6-7.6c-0.6-0.6-0.7-1.1-0.4-2.1
	c1.3-3.2,7.1-5.6,10.3-3.9c2.8,1.5,5.8,2.1,8.8,1.3c3.7-0.9,7.3-2.4,11-3.7c1.3-0.6,2.8-1.1,3.9-2.1c2.1-1.5,2.2-3.9,1.5-6.2
	c-0.6-1.5-1.7-2.8-3.5-2.1c-3.7,1.5-6.7-0.2-9.7-2.1c-4.7-2.8-8.4-6.7-13.2-9.1c-4.1-2.1-5.8-1.7-8.6,2.1c-1.5,1.9-3.7,0.9-5.6,0.7
	c-1.5-0.2-2.1-2.2-1.9-3.4c0.4-2.2,2.4-0.9,3.7-1.1c0.9-0.2,2.2,0,2.2-1.3c0-1.9-1.1-3.5-2.2-5c-0.9-1.1-1.5,0.2-2.1,0.7
	c-4.3,3.4-8.4,4.3-14.2,3c5.6-2.1,5.8-2.2,3.2-7.5c-0.9-1.9-0.4-3,1.3-3.4c3-0.7,2.2-3,1.7-4.7c-0.9-2.4-2.8-3.5-5.6-3.5
	c-6-0.4-9.1-3.9-9.3-9.9c0-0.9,0.2-1.9,0-2.6c-0.4-1.7-1.9-2.2-3.5-2.1c-1.3,0.2-2.8,0.7-2.4,2.2c0.9,4.8-3.5,6.5-5.2,9.7
	c-0.6,0.7-2.1,1.3-3,0.6c-0.9-0.7-0.7-2.1,0-3c1.5-2.1,2.1-4.1,1.5-6.7c-0.4-1.5-0.7-3-2.1-3.2c-1.3-0.2-1.5,1.7-2.2,2.6
	c-1.7,2.1-0.2,5.2-1.9,7.1c-2.8,3.2-4.8,6.9-8.4,9.7c-3.9,3-8,6.2-8.4,12.1c-0.2,2.4-0.9,5.8-4.1,6.9c-0.6,0.2-1.3,1.1-1.3,1.7
	c-0.7,5.6-4.3,7.1-9.3,6.3c-0.6,0-1.3-0.2-1.9,0c-2.6,0.9-5.2,2.2-6,5.2c-0.4,2.1,2.1,3,3.5,3.4c4.1,1.1,3.4,3.2,1.9,5.8
	c-1.3-0.2-2.2,0.4-2.4,1.7c-2.1,2.6-4.1,5.2-7.8,2.2c-0.2-0.2-0.7,0.4-1.3,0.6c-0.9,0.2-1.3,0.7-1.3,1.7c-0.6,1.3-1.7,2.1-3,2.2
	c-0.2-0.4-0.6-0.6-0.7-0.9c-0.4-0.2-0.6-0.6-0.9-0.7c-1.7-2.2,1.7-3.2,1.5-5c-1.7-0.6-2.8,0.4-3.9,0.9c-3.7,2.2-7.3,4.5-10.4,7.6
	c-3,3-6.7,4.5-10.8,4.8c-0.7-0.2-1.3,0-1.7,0.7c-0.7-0.2-1.5-0.4-2.2-0.6c-2.8-0.7-4.5-0.7-3.9,3.2c0.6,3.4-0.9,6.5-3.2,9.1
	c-8.2,9.5-17.5,18.1-24.4,28.5c-2.4,3.5-5.8,5-9.9,6.2c-11.2,2.6-22.2,5.4-33.4,7.5c-7.1,1.1-11.4,5.4-9.1,13.4
	c0.2,0.7,0.6,1.3-0.6,1.9c-0.9,0.4-1.7,0.9-2.8,0.2c-0.9-0.7-1.9-1.7-3.2-1.9c-0.9,2.2-1.5,4.7-1.7,7.1c1.3,0.6,2.4,0.2,3.7,0.2
	c0.7,0,2.1-0.6,1.9,0.9c0,0.9-0.9,1.7-1.9,1.3c-2.4-0.7-2.8,1.1-3.4,2.4c-1.3,3.4-2.2,6.9-3.9,10.1c-1.1,2.2-2.6,3.7-0.7,6.2
	c1.5,2.2,3.7,2.8,6.2,2.4c2.1-0.2,3.2,0.9,4.8,3.2c-5-0.4-9.1-0.4-12.3-3.9c-1.1-1.3-2.6-1.9-4.1-2.6c-1.5-0.7-3-1.5-3.4,1.3
	c-0.2,1.3-1.5,1.9-2.8,1.3c-0.6-1.1,3-2.4-0.4-3.2c-4.5-0.9-8-3.4-10.4-7.1c-1.5,0.7-1.7,2.2-3.2,2.6c-6.2,1.9-14.9-1.3-18.6-6.9
	c-0.2-0.4,0-2.2-1.5-1.1c-0.2-0.2-0.4-0.2-0.6,0c-3.4-1.5-6.5,0-7.5,3.2c-0.7,2.4-1.5,5.2-4.1,6.7c-3.2,1.9-6,4.3-5,8.6
	c0.2,1.1-0.7,1.7-1.3,2.6c-1.5,2.2-3.2,4.5-1.1,7.5c1.5,2.1,0.2,4.1-1.9,5.2c-1.3,0.7-1.3,1.1-1.1,2.8c0.4,1.9,2.1,3.2,1.9,5
	c-0.7,4.8-0.7,8.9,4.7,11c0.6,0.2,0.9,0.9,1.1,1.5c2.1,3.4,2.2,6.7,0,10.4c-3.9,6.7-0.9,13.1,6.3,14.2c0.7,0.2,1.5,0.2,1.1,1.3
	c-0.4,1.5,0.6,1.5,1.5,1.9c0.9,0.4,2.2,0.7,1.7,2.6c-1.3-0.4-2.8-0.9-4.1-1.1c-0.9,0-2.1-1.7-2.8,0.4c-0.6,1.7-0.2,3.4,0.9,4.5
	c0.9,0.9,2.2,1.7,3.4,1.1c3.7-1.9,3.7-2.1,7.1,1.1c0.6,0.6,1.5,1.3,1.9,1.1c2.2-1.1,2.8,0.6,3.9,1.7c1.7,2.1,5.4,2.4,4.5,6.3
	c0,0.2,0.6,0.6,0.7,0.7c3.5,1.3,3.7,4.3,3.2,7.1c-0.6,2.8,0,6.3-2.8,8.2c-3.5,2.2-1.7,3.5,0.6,4.5c3.9,1.5,4.3,4.3,3.9,7.8
	c-0.2,1.1-1.1,2.2-0.4,3.2c3.9,5,0.9,11.9,4.8,17c0.2,0.2,0,1.1-0.2,1.5c-0.9,1.5-0.7,3.2,0.4,4.1c1.5,0.9,2.1-1.1,3.2-1.7
	c0.2-0.2,0.4-0.4,0.6-0.6c5-3,6.2-2.4,7.8,3c0.7,2.6,1.7-0.2,2.4-0.4c0.4,0.2,0.9,0.7,1.3-0.2c0.9,0.2,1.7-0.2,2.4,0.6
	c3,3,6.2,1.9,9.3,0.2c1.3-0.7,2.6-1.3,3.9-2.1c2.8-1.5,5.4-1.5,7.5,0.9c1.1,1.3,1.7,0.9,3,0.4c2.8-0.9,1.7-4.1,3.5-5.4
	c3.2,4.8,5.2,14.9,4.1,20.9c-0.2,0.9-1.3,1.9,0.2,2.6c1.1,0.6,2.4,0.4,3.5-0.6c1.5-1.5,3-3,4.7-4.3c3.4-3.2,7.3-3.7,10.6-0.6
	c3.2,2.6,5.4,2.1,8.2-0.2c1.5-1.3,3.2-2.2,4.8-3.4c1.7-0.9,3.2-1.7,2.4-4.3c-0.4-1.9,1.5-3.2,2.8-4.1c1.3-0.9,2.1,0.9,2.8,1.9
	c2.1,1.9,3.7,4.1,6.2,5.4c1.3,0.7,2.8,1.3,3.7,0c1.5-2.2,3.9-2.2,5.6-1.3c1.7,0.9,1.9,3.5,1.1,5.4c-1.1,3.2,0.2,3.4,2.8,3.2
	c1.7-0.2,3.4-0.2,4.7-1.1c4.7-3.4,9.3-2.6,13.8,0.2c0.4,0.7,0.9,0.7,1.5,0.7c5.8,1.7,8,5.6,7.6,11.4c-0.2,2.4,0,5,0,7.5
	c0.2,3.9,0.9,4.5,4.1,2.4c4.8-3,10.1-4.8,15.1-7.1c6.3-2.8,12.9-4.8,19-8.6C650.5,349.7,651.9,348,653,344.8z M476.2,207.4
	C476.4,207.4,476.4,207.4,476.2,207.4L476.2,207.4z"/>
<path class="st0" d="M315.3,408.4c0.2-0.7,1.3,0,1.7,0.6c1.7,3.4,3.9,6,7.6,7.1c0.7,0.2,1.1,1.1,0.9,1.9c-0.2,3.2,3.4,1.5,4.1,3.4
	c1.3-0.9,1.7-2.2,1.9-3.9c0.7-4.3-0.4-9,0.9-12.9c2.2-7.3,0.4-14.7,2.1-22c1.3-5.2-3.4-9.7-2.4-15.1c0.6,0,0.9-0.4,0.9-0.9
	c-0.2-2.2,1.1-4.1,2.2-5.8c1.5-2.4,1.5-4.5-1.3-6c-1.7-0.7-2.1-2.2-1.7-3.7c0.7-3.4,1.5-7.1,4.1-8.9c3.5-2.4,3.9-5,3-8.8
	c-0.4-2.1-1.1-2.8-3-3c-4.3-0.4-5.4-1.5-5.2-6.2c0-1.5-0.4-2.4-1.9-2.6c-3.4-0.6-4.3-3.2-3.5-5.8c0.9-3.4-0.7-3.2-2.8-3.4
	c-5.4-0.4-10.8-0.7-16.2-1.7c-2.6-0.6-4.8-1.7-6.7,1.5c-0.4,0.6-1.3,0.4-2.2-0.4c1.1-1.7,1.7-3.7,3.9-4.7c1.7-0.7,1.5-2.1,1.3-3.5
	c-0.2-1.5-0.7-3-2.2-3.2c-2.6-0.2-4.1-1.7-5.8-3c-1.7-1.3-3.2-1.5-4.5,1.3c-0.2-2.1-0.6-3.2,0.2-4.3c1.9-2.6,0.7-4.3-2.1-5.4
	c0-0.4,0-0.9,0-1.3c0.2-0.2,0.6-0.4,0.6-0.4c-0.6-5-1.1-10.1-1.9-15.1c-0.2-1.5-1.1-2.4-2.6-1.7c-2.4,1.1-4.7,0.2-6.9-0.6
	c-2.1-0.7-3.9-1.7-6.2-0.9c-1.5,0.6-2.6,0-3.9-0.6c-4.3-1.3-6.5-5.2-10.3-7.1c-1.3-2.1-2.2-5-0.4-6.5c3.4-2.4,5.2-7.1,10.8-7.3
	c-3.5-2.8-7.1-3.7-11.2-3.4c0.9-2.2,3.9-2.4,4.5-4.1c1.1-3,3.4-2.6,5.4-2.6c1.9,0,1.5-1.1,1.3-2.2c-0.6-4.7-3.2-7.6-6.9-10.3
	c-6.5-4.5-6.3-4.7-12.5,0.2c-0.6,0.4-1.1,0.6-1.7,0.9c-4.3,3.4-9.7,4.1-14.9,5.4c-0.2-0.2-0.6-0.4-0.7-0.6c4.1-2.2,8.2-4.5,12.5-6.5
	c1.1-0.6,2.2-1.1,1.7-2.8c-1.1-3.2-5.8-6.3-9.5-6.5c-3.2-0.2-6.5,1.1-9.3-1.3c0.4-0.7,0.9-0.7,1.5-0.9c1.3-0.2,2.6-0.4,4.1-0.6
	c3.4,0,6.9-0.9,9.9,1.7c0.6,0.4,0.9,1.5,1.7,0.7c0.7-0.6,0.7-1.7,0.2-2.4c-3-2.8-5.8-5.8-10.3-5.8c-1.7,0-3,0.2-3.5-2.1
	c-0.6-1.9-2.1-3-3.4-0.2c-0.4,0-0.6,0-0.9,0c-0.9-1.1-0.2-2.2,0-3.5c0.4-3.2-4.5-7.3-7.5-6.3c-0.6,0.7-1.1,1.5-1.7,2.2
	c-0.7-0.9-0.9-2.4-2.2-2.8c-3.2-1.3-5.6-3.7-8-6c-2.2-2.1-4.5-2.8-7.5-2.4c-3.2,0.4-6-0.6-7.1-3.9c-1.7-5.4-4.1-9.7-9.1-13.2
	c-2.8-2.1-5-2.2-8-2.4c-1.1,0-2.4,0.2-2.8,1.3c-0.6,1.3-0.2,2.4,1.3,3.2c0.7,0.4,1.1,0.7,0.6,1.5c-0.2,0.4-0.9,0.4-1.3,0.4
	c-5.6-1.1-11.9-4.5-12.9-11.2c0-0.9-0.6-0.9-1.3-1.1c0.4-2.8-2.1-4.5-3.2-6.7c-1.3-1.7-2.6,0.2-3.9,0c-0.7-0.2-0.6-1.5-1.9-1.1
	c0,1.3,1.3,2.8,0,4.3c-2.1-2.1-2.8-3.9-1.7-6.5c0.6-1.3,0.7-3.5-0.7-4.8c-2.6-2.4-4.8-5.2-8.4-6.7c-1.7-0.7-3.5-1.3-4.8-2.6
	c-5.4-5.6-11.9-9.5-18.8-12.9c-3.2-1.5-7.1-2.1-7.8-6.5c0-0.4-0.6-0.7-1.1-0.9c-3.9-1.3-6.2-5.8-10.8-5.6c-0.7,0-1.5-1.5-1.7-2.8
	c0-1.3-0.2-2.4-0.2-3.7c0.7-0.4,0.9-0.9,0.9-1.7c0-3.2-2.6-4.5-4.7-5c-4.1-1.1-4.7-4.3-5.4-7.5c-0.4-1.5-0.6-3.4-2.2-4.1
	c-3.2-1.1-5.4-3.4-6.9-6c-3-4.7-6.5-5.6-11.6-3.2c-1.3,0.6-3,1.7-4.1,0.4c-4.1-4.7-9.3-3.2-14-2.1c-6,1.7-20.5,0.6-25.2-6.3
	c-3.4-4.8-8.4-5.8-13.4-6.5C5.2,61.2,0,64,0,65.5c0.2,4.8,0.9,9.7,2.6,14.4c4.1,11.4,14,18.1,22.4,25.7c3.9,3.5,8.2,6.5,11.2,11.2
	c1.9,2.6,4.1,4.5,7.8,3.7c2.4-0.4,5.4-0.4,6.9,2.1c2.2,3.4,5.6,5.8,7.6,9.5c2.4,4.5,6.9,7.6,8.8,12.7c0.4,0.9,1.7,1.9,2.6,2.1
	c5.6,0.7,5.4,5.2,6.2,9.1c0.4,1.7,0,3.5,0.2,5.2c0.4,3.7,3.4,7.1,6.3,6.3c3-0.6,4.8,0.6,7.1,2.1c0.6,1.3,1.5,1.5,2.8,1.3
	c5.2,3.2,11.4,5.4,14.7,11c0.4,0.7,0.9,0.7,1.9,0.6c2.8-0.2,5.2,3.9,3.4,6.2c-1.7,1.9-1.1,3.2-0.4,4.8c0.9,1.9,1.7,3.9,2.4,5.8
	c3.4,9.5,7.8,18.6,8.9,28.9c-0.4,1.9,0.6,1.3,1.5,0.9c-0.2,0.9-0.2,1.7,1.1,1.7c1.1-0.2,2.6-0.7,3.2,0c1.7,2.8,5,2.6,7.1,4.3
	c2.2,1.7,6.2,2.4,6,6c-0.2,2.6,1.1,5,2.4,6.3c4.8,4.5,8.4,10.1,13.1,14.7c2.6,2.6,3.7,5.8,3.7,9.3c0,2.2,0.6,4.5,2.2,5.6
	c3,1.9,4.3,4.3,5,7.6c0.9,4.1,3.9,7.5,6.3,10.8c2.1,2.8,4.1,5.8,0.9,9.3c-0.2,0.4-0.4,0.9-0.2,1.3c1.9,3.2,2.4,7.3,6.3,9.1
	c0,0.7-0.2,1.5,0.6,1.7c1.5,1.7,2.8,3.5,5,4.3c2.6,0.9,3.7,3.2,5,5.4c2.4,4.3,4.1,9.5,8.2,12.7c4.8,3.5,9.1,7.5,14.5,10.3
	c2.4,1.3,5,3,5,6.3c0,6.5,4.8,9.3,9.3,12.5c6.5,4.7,12.1,10.8,19.8,14.2c1.3,0.6,2.4,1.9,3.4,3c4.3,5,6.5,5.8,12.7,3.9
	c-0.4,1.1-2.4,0.9-2.2,2.6c4.1,1.5,7.6,4.1,9.7,7.5c2.1,3.4,3.9,6.7,6.9,9.1c5.2,3.9,9.5,8.8,13.4,13.8c1.3,1.5,2.6,0.9,3.5,0.6
	c1.3-0.6,0.4-1.9-0.2-2.4c-1.7-2.4-2.2-5.2-4.3-7.3c-2.1-2.1-0.4-3.2,1.5-3.4c1.5-0.2,2.8,0,4.1,1.3c2.8,3,6.3,4.8,9.9,6.7
	c3,1.5,4.3,0.6,3.9-3C311.9,411.9,314.9,410.8,315.3,408.4z"/>
<path class="st0" d="M1115.4,345c-2.2,0.2-2.6-1.5-2.8-3.2c-0.2-3.7-2.2-6-5-8.2c-3-2.4-6.3-2.2-9.5-1.9c-4.7,0.6-8.8-0.9-12.7-3.4
	c-5.6-3.5-8.8-3.5-14,0.2c-1.1,0.7-2.2,1.5-3.6,2.1c-1.7,0.7-3.9,0.2-4.1-1.3c-0.2-4.8-2.8-2.4-4.7-1.9c-1.5,0.4-3,0.6-4.5,0.6
	c-5.4,0-10.8,0-16-0.2c-2.2,0-3.7,0.6-5,2.4c-0.8,1.3-1.7,2.6-2.8,3.4c-3.4,2.6-5.8,5.2-2.4,9.5c0.2,0.4,0,0.9,0,1.5
	c2.2-1.5,3.2-3.4,3.4-5.8c0-1.7,0.9-3.2,2-4.3c0.9-0.9,2.6-1.3,2.6-0.2c0.2,4.1,4.1,5.4,5.8,8.4c2.1,3.7,5.2,3.7,8.4,0.9
	c1.9-1.5,3.2-3.5,5.2-4.7c1.5-0.9,2.8-1.5,4.5-0.6c1.9,1.1,0,2.6,0.4,3.7c6.3-0.6,11.6,4.1,18.1,3.4c-0.4-0.7-0.6-1.3-0.9-1.9
	c-1.5-2.4-0.9-3.5,2.1-3.2c2.6,0.4,5.2,0.6,7.8,0.7c1.7,0.2,3.9,0.6,4.1,2.1c0.8,3.5,3.9,4.1,6.3,5c5.2,1.9,10.6,3.5,14.9,7.5
	c1.1,0.9,2.6,1.3,4.1,1.7c0.6,0.2,1.7,0.6,1.7-0.6c0-2.6,1.1-5,0.9-7.6C1119.3,347.4,1118.7,344.6,1115.4,345z"/>
<path class="st0" d="M756.1,299.7c-0.9,0.2-1.9,0.9-2.2,1.9c-0.9,3.4-2.6,6.3-2.4,10.1c0.4,4.3-4.7,9.7-9.1,9.1
	c-2.2-0.2-1.7,1.5-1.9,2.2c-0.2,1.1-1.3,3,0.9,3.2c3.2,0.4,2.6,2.1,2.1,4.3c-1.3,5.2-1.7,10.4,0.6,15.7c0.7,1.9,1.1,2.2,3.5,1.7
	c4.3-0.9,8.4-4.5,13.2-2.1c0.6,0.9,1.3,1.3,2.2,1.3c0.9,1.3,1.1,2.4,0.2,3.7c-1.5,1.9-0.7,3.5,0.2,5.4c5.4,9.3,5.4,18.6,0.6,28.3
	c-0.4,0.6-0.7,1.5-0.6,2.1c1.9,4.7-0.7,8.4-3,12.1c-3.4,5.6-1.3,11.2,4.8,13.8c0.9,0.4,1.7,0.7,2.4,1.7c2.1,2.8,3.9,2.2,5.8-0.4
	c1.3-1.7,2.8-3,5-2.1c2.2,0.9,4.1,0.6,6.2-0.6c3-1.5,5.4-1.9,7.3,1.7c-0.4-4.1-1.5-8-3.7-11.4c-0.7-1.1-2.1-2.2-1.3-3.7
	c1.7-3.5-0.4-8.4,3.5-11.2c0.7-0.6,0.9-2.1,0.9-3.2c-0.4-5.2-1.3-10.3-1.7-15.5c-0.2-4.3-0.7-8.2,1.3-12.1c1.1-2.1,1.3-4.1,0.4-6.2
	c-0.7-2.1-1.1-4.1-0.7-6.2c0.6-3.2,0-5.6-3.2-7.5c-3.4-2.1-3-6.3,0.2-8.4c4.1-2.6,7.8-5.6,12.3-7.6c4.5-2.1,10.6-0.4,13.1,3.9
	c0,0.2,0,0.6,0,0.7c-1.7-0.2-2.6,0.4-1.3,1.9c1.1,1.1,1.3,2.1,1.1,3.4c-0.9,4.5-0.9,9.1-4.8,12.7c-3,2.6-2.2,4.7,0.9,7.5
	c3.5,3.2,7.5,6.3,10.8,9.7c1.7,1.7,3.2,3.2,5.8,3.4c3.4,0.2,5.2,3.4,3.4,6c-2.4,3.4-1.9,7.3-3.4,10.8c-1.3,3.2,0.4,5.2,2.8,6.9
	c3.7,2.6,8.6,2.1,12.7,3.4c1.3,0.4,3.9-0.6,2.4-3c-2.4-4.3,0.6-8.8,5.4-9.5c3.4-0.6,6.9-0.9,10.1-2.4c1.1-0.6,1.9-0.2,2.8,0.4
	c0.6,1.3,0.9,3,3,1.9c-0.2-1.3-1.1-2.1-2.2-2.6c-0.4-0.6-0.6-1.3,0-1.7c0.9-0.9,1.5,0.4,2.1,0.7c1.3,0.6,2.2,3.2,3.9,1.3
	c1.7-1.7,0.9-4.3,0.6-6.5c-0.4-2.1-2.1-1.3-3.4-1.3c-2.1,0-3.5,0-4.1-2.4c-0.6-2.2,0.6-6-4.1-5.2c-0.2,0-0.6-0.2-0.6-0.4
	c-0.9-3.5-4.5-4.3-7.1-6.2c-1.3-0.9-3.2-3.2-2.4-3.7c3.4-2.2,1.5-6,2.8-8.6c0.4-0.7,1.9-1.7,0.4-2.8c0.2-0.2,0.4-0.4,0.7-0.6
	c0.6,0.2,0.9,0.4,1.5,0.6c1.3,0.6,2.4,0.2,2.4-1.1c0-1.5-1.5-0.6-2.4-0.9c-0.6-0.4-1.1-0.9-1.5-1.3c-0.4-1.1-2.4-1.5-1.5-3
	c1.9-2.8-0.4-3.5-1.9-5c-2.4-2.1-6.3-3-6.9-6.5c-1.7-10.6-12.3-13.1-17.9-20.1c-0.2-0.2-0.7-0.2-1.1-0.2c-3,0.9-2.2-2.1-2.8-3.2
	c-0.6-0.9-0.7-2.6,0.4-3.4c1.5-1.1,2.8,0.6,4.1,0.9c0.4,0,0.7,0.6,1.1,0.9c3.9,3.9,7.1,3.4,9.1-1.9c0.7-2.1,1.9-2.8,3.9-3.4
	c3.5-0.9,7.3-1.9,10.4-3.4c7.8-3.9,12.7-11,17.3-18.1c2.6-4.1,10.4-4.8,13.4-0.9c0.9,1.3,1.9,2.8,3.9,2.4c1.9-0.2,1.5-2.1,2.1-3.2
	c0.4-0.7,0.4-1.5,0.7-2.1c1.7-3.4,0.7-5.6-2.2-7.5c-6.3-3.7-11.9,0.7-18.1,0.9c1.3,0.6,2.6,0.7,3.9,1.1c0.9,0.2,2.2,0.4,2.1,1.7
	c0,1.1-1.3,0.9-2.1,1.1c-3.5,0.4-7.1,0.9-10.4-0.2c-3.9-1.1-7.3,1.9-11.2,1.3c-1.3-0.2-1.5,1.5-1.7,2.6c-0.2,1.7-0.9,2.6-2.8,2.1
	c-1.1-0.4-1.9,0.2-2.8,0.6c-4.5,2.1-9.9-0.4-11.2-5.2c-0.4,0.7-0.4,1.5-0.7,1.9c-6.2,3.5-10.1,8.9-13.4,14.9
	c-0.7,1.3-1.7,3.4-3.5,2.6c-2.4-0.9-5.6,1.1-7.5-1.9c-0.4-0.6-0.9-0.2-1.3,0c-2.8,3.4-3.5,0.7-4.8-1.5c-0.9-1.9-2.2-3.2-1.7-5.6
	c0.4-1.7-1.3-3.4-3-4.7c-2.1-1.9-5,0.2-6.3-1.7c-3-4.3-8.8-7.5-6.9-14.4c0.2-0.7,0.2-1.9-0.2-2.6c-1.7-3-1.3-6.2-0.6-9.3
	c0.4-1.9,2.2-2.4,2.2-4.3c0-4.8,2.8-8.4,6-11.6c3.9-3.9,10.3-5.4,15.1-2.4c6.2,3.9,11.7-0.6,17.7-0.2c0,0,0.2-1.3,0.2-2.1h0.4h0.4
	c0,3.5,2.6,2.8,4.1,1.7c3.5-2.6,6.3-1.7,9,1.1c1.1,1.1,2.2,0.9,3.4,0.7c5-1.5,10.1-2.2,15.5-1.9c5.8,0.2,11.6,0.7,17.2,0.2
	c4.3-0.4,7.1,0.7,9.7,3.9c1.9,2.4,4.8,2.6,7.6,1.1h0.4h0.4c2.4,1.1,5,1.7,7.8,1.1c4.3-0.7,8.4-2.1,12.9-2.2
	c7.5-0.2,11.9-4.3,14.7-10.8c1.3-3.2,3.7-5.4,6.5-6.9c4.1-2.4,6-6.2,7.6-10.3c0.9-2.4,1.5-5,4.5-6c0.6-0.2,1.3-0.9,1.1-1.3
	c-1.7-1.5-1.9-3.7-3.4-5c-1.3-1.1-3.5-1.5-4.8-0.2c-1.3,1.3-4.7,1.5-3.4,4.8c0.4,1.1-0.4,1.7-1.3,2.2c-1.7,0.9-3.4,1.7-5.2,1.3
	c-1.3-0.2-2.1,0.7-2.6,1.7c-0.7,1.3,0.2,1.7,1.1,2.2c1.5,0.7,0.7,2.6,0,2.4c-5.4-0.7-8,2.6-10.6,6.3c-0.4,0.4-1.1,0.6-1.7,0.7
	c-2.1,0.9-4.3,1.9-6.3,3c-2.6,1.5-5.2,1.5-8.2,0.9c-5-1.1-10.3-1.3-15.3-3c-1.3-0.4-3-0.7-4.1,0.4c0,0.4,0,0.6-0.2,0.9
	c-2.2-2.2-4.3-1.5-6,0.7c-1.5,1.9-3,2.2-5,0.6c-6.2-4.7-13.2-5.4-20.5-4.5c0-0.2,0-0.4,0-0.7c0-0.2,0.2-0.2,0.2-0.4
	c0,0,0-0.2-0.2-0.2c-1.7-1.5-3.7,1.3-4.7,0c-2.1-2.6-4.1-1.7-6.3-1.3c-4.7,0.9-8.9,0.9-11.2-4.3c-0.4-0.7-0.7-1.1-1.7-0.9
	c-2.8,0.7-5.2-0.4-7.6-1.9c-1.9-1.1-4.1-0.9-6.2-0.9c-2.1,0-2.8,0.6-2.8,2.8c0.2,3.4-0.4,6.7-4.5,8c-1.3,0.4-1.9,1.9-2.4,3.2
	c-0.6,1.3-0.4,3.9-3.2,3.2c-2.4-0.7-5.8-0.2-6-4.3c0-0.7,0-1.7-0.9-1.9c-1.1-0.2-1.5,0.9-1.5,1.7c0,3.4-2.1,4.8-5,5.6
	c-1.9,0.6-2.2,1.9-1.7,3.5c0.7,2.2,0,3.7-2.4,4.5c-2.4,0.7-3.5,3-2.4,5.2c1.7,3.4-0.4,3.2-3.2,3c2.8,2.6,4.7,5.4,2.8,8.2
	c-1.5,2.2-1.5,4.7-2.4,7.1c-1.9,4.1-1.3,8.4,1.1,12.1c1.1,1.7,0.9,3.5,1.3,5.4c0.2,0.7-0.4,1.3-0.9,1.5c-0.9,0.2-0.7-0.7-1.1-1.1
	c-0.9-1.7-1.3-3.5-2.6-5c-2.6,3.4-6.2,6.2-4.7,11c-0.9-0.2-0.7-0.9-0.9-1.5c0.2-0.9,0.6-1.9-0.2-2.8c-0.9,0.6-0.9,1.3-1.1,2.2
	c-0.6,2.6-1.5,4.8-3.7,6.5c-1.3,0.9-1.3,2.8-1.7,4.3c-1.1,3.5,0.7,6.9,0,10.1c-0.6,2.1,0,3.5,0.7,5.2
	C759.2,296.7,759.4,298.8,756.1,299.7z"/>
<path class="st0" d="M740.4,510.4c1.9,0.7,4.1-1.1,6.2,0.9c0.7,0.7,2.6,0.2,3.9,0.2c0.9,0,1.3-0.6,1.3-1.5c0-0.6,0-1.3-1.1-1.1
	c-4.5,0.7-3.5-2.1-2.8-4.7c0.6-2.1-2.1-6-4.1-6.3c-3.4-0.6-5.2,0.9-5.4,4.3c0,1.3,0,2.4-1.9,3c0-0.7,0-1.3,0-1.9
	c0-1.9,1.3-4.5-1.1-5.4s-5.4-2.4-7.6,1.1c-0.6,0.9-2.2,1.7-3.7,0.7c-2.1-1.1-3.4-3.2-3.7-5.2c-0.4-1.5-0.9-2.2-2.4-2.4
	c-3.2-0.7-6.2-0.4-9.1,0.7c-1.9,0.7-2.8,2.2-0.9,4.1c1.1,1.1,2.2,2.1,3.4,3c3.2,2.8,8.2,2.1,11.4,5.6c0.7,0.7,2.4,1.1,2.1,2.6
	c-0.4,1.5-2.1,1.9-3.4,1.5c-1.7-0.4-3.4-0.7-4.5,0.6c-1.7,2.1-3.7,0.6-5.4,0.9c-3.2,0.6-3.2-1.5-4.1-3.5c-0.7-1.5-4.3-1.5-2.6-4.5
	c-0.2,0-0.2,0-0.4-0.2c-2.1-1.1-4.3-2.2-6.5-0.6c-0.9,0.7-1.5,1.1-2.6,0.6c-4.5-2.6-8.6-2.6-12.1,1.5c-0.4,0.6-1.3,0.6-2.1,0.7
	c-2.6,0.9-4.1,2.4-3.4,5.6c0.6,2.1,1.5,4.1-0.9,5.6c-0.6,0.4-0.9,1.7-0.4,2.8c0.9,1.5,9.9,4.1,11.4,3c2.4-2.2,4.8-1.9,7.5-1.1
	c1.3,0.4,2.8,0.2,3.9-0.7c5.2-3.9,12.3-1.9,17.5-5.4c0.6-0.4,1.5-0.6,2.2,0c1.1,0.7,2.1,0.2,3-0.6c1.9-1.7,3.7-3.4,5.6-4.8
	c0.6-0.4-0.2-2.2,1.3-1.3c0.7,0.4,1.1,1.3,0.7,2.2c-0.2,0.7-0.6,1.3-0.7,2.1c-0.9,2.4,0.4,3.7,2.4,3c2.6-0.9,6.5-0.2,7.5-4.3
	C738.4,510.8,739.3,510,740.4,510.4z"/>
<path class="st0" d="M1004.1,499.6c-3.2-0.2-6.2-0.2-9.1,1.1c-4.7,2.1-9.3,5-14.7,1.9c-1.1-0.6-2.4,0.2-3.5,0.7
	c-3.2,1.7-6.3,2.6-10.1,1.5c-1.3-0.4-3.2-0.9-4.5-0.6c-6.7,2.4-13.8,2.4-20.5,4.3c-1.1,0.4-2.2,0.7-2.4,2.1
	c-0.6,2.6-2.4,4.7-4.1,6.5c-0.9,1.3-1.5,2.6-1.1,4.1c0,0.4,0,0.6,0,0.9c-1.5-2.6-3.5-2.2-5.6-0.7c-3,2.2-6,4.5-9.5,5.8
	c-0.2,0-0.4,0-0.6,0c-3.4-0.7-6.5,0.4-9.1,2.4c-0.9,0.7-3.7,0.2-2.6,2.8c-1.5-0.9-2.8-1.7-4.1,0.6c-0.6,0.9-1.9,1.7-3,2.6
	c-2.6,2.1-6,3.5-5.6,8c0.2,2.1,0.2,4.7-2.4,6.2c-0.9,0.6-1.1,3,1.7,2.2c1.3-0.4,3,0,3.2,1.7c0.2,1.5-1.3,1.9-2.4,2.4
	c-2.2,0.9-5,1.1-5.8,4.1c-0.2,0.7-0.7,1.5,1.1,2.1c6,2.1,11-0.4,15.5-3.2c2.8-1.9,5-2.6,8.2-2.2c3,0.4,5.4-0.7,6.9-3.4
	c0.4-0.6,0.7-1.3,1.3-1.7c6-3.9,10.8-8.6,14.2-14.9c0.2-0.6,0.9-0.7,1.5-1.1c0.6-0.6,1.1-1.1,1.7-1.5c1.1-0.9,2.8-0.2,3.7-1.5
	c3.4-4.3,8.4-4.8,13.1-6.7c4.3-1.7,9.3-0.9,12.9-4.3c2.1-1.9,4.5-2.4,7.3-2.4c3.4,0,6.7-0.7,8.4-4.1c0.7-1.5,2.6-2.1,4.1-2.2
	c6.9-0.6,12.3-3.7,17-8.6c0.8-0.7,2.2-1.3,1.7-2.6C1006.7,500.3,1005.4,499.6,1004.1,499.6z M907.1,532.6
	C907.1,532.6,906.9,532.6,907.1,532.6C906.9,532.6,907.1,532.6,907.1,532.6z"/>
<path class="st0" d="M865.7,502.4c2.8,0.6,2.6-3.4,4.7-3.4c5-0.2,0.9-2.2,0.9-3.5c-1.5,1.9-5.6,4.5-8.4,5.6c-2.4,0.9-5.2,1.5-5.2,5
	c0,1.1-1.3,1.9-2.6,2.1c-5.4,0.9-7.8-0.7-13.8-4.1c-2.8-1.5-8.2,0-11.7,1.5c-2.4,1.1-6.7,3-8.6,0.6c-3.4-4.5-8.9-4.8-13.1-5.8
	c-4.8-1.1-10.1-3.4-15.3-2.6c-2.8,0.4-5.8-0.7-8.4,1.5c-0.9,0.7-1.3,5.4-4.3,1.7c0,0-0.7,0.4-0.7,0.6c0.2,1.7-0.9,1.5-2.1,1.7
	c-2.1,0.4-3.4,2.2-4.3,3.9c-0.9,1.7-0.9,3.9,0.2,5.8c1.1,1.7,3,1.7,4.8,1.3c2.6-0.6,5.4-1.7,8,0.6c0.7,0.7,2.1,0.4,3.2,0
	c3.4-1.1,6.7-1.9,9.9,0.7c1.1,0.9,2.6,1.3,4.1-0.2c1.3-1.3,2.1-0.6,3,0.6c1.9,2.4,4.1,3,6.9,1.5c2.1-1.1,4.1-1.9,6.3-0.7
	c0.9,0.4,1.9,0,1.9-1.1c0.2-2.4,1.5-2.4,3.4-2.1c2.2,0.6,4.5,0.2,6.7,1.5c1.3,0.7,3.4,0.6,5.2,0c4.8-1.1,9.1-5,14.7-3.5
	c5.2,1.3,8.6-3.7,13.4-4.1c2.6-0.2,3.4-1.3,1.5-3.5C865.5,503.5,865.5,502.4,865.7,502.4z"/>
<path class="st0" d="M313.8,303c4.5,1.7,9.1-0.2,13.6,0.6c3,0.6,4.8,1.3,5,4.7c0.2,2.4,0.2,5.2,3.4,6.3c1.1,0.4,0.7,1.7,0.6,2.6
	c-1.3,6.7-0.7,7.6,5.6,9.5c1.5,0.4,3,0.7,4.3,1.3c2.4,1.1,5.4,1.3,6.7,3.7c1.3,2.8,3.5,2.6,6,2.4c0.9,0,1.9-0.2,2.1-1.3
	c0.2-1.1-0.6-1.5-1.5-1.7c-1.7-0.4-3.2-1.3-2.4-3.4c1.1-3.2,1.3-6.7,4.8-8.9c-2.6-1.7-5-2.4-7.5-2.6c-5.4-0.4-8-3.5-9.7-8.4
	c-1.7-5-0.9-10.8-4.3-15.3c-0.9-1.3-1.7-2.6-1.7-4.5c-0.2-2.4-3.7-3.5-6.3-3c-3.9,0.7-1.9,2.8-1.3,4.7c0.4,1.3,1.5,2.2,1.1,3.9
	c-2.8,0.2-4.8,0-5.4-3.5c-0.7-4.7-2.6-5.4-6.5-2.4c-1.1,0.7-3.7,1.5-1.9,3.5c1.9,2.1,0.7,3-0.7,4.1c-1.3,1.1-2.8,2.1-4.5,2.6
	c-1.3,0.6-2.2,1.1-2.1,2.6C311.2,302.9,312.7,302.7,313.8,303z"/>
<path class="st0" d="M802.3,550.5c-2.4-1.1-3.4-3-4.7-5c-1.7-2.8-3.7-5.6-8-4.3c-1.9,0.6-4.3,0-4.5-3c0-1.1-0.4-2.6-1.7-2.6
	c-3.2,0.2-4.3-2.1-5.6-4.1s-2.2-1.7-3.7-0.2c-1.1,1.1-2.2,2.8-4.1,1.7c-3.4-1.9-6.9-0.2-9.1-0.6c-5.4,0-9.5-0.2-13.1,2.1
	c-2.2,1.3-3.4,2.6-1.1,5.2c2.2,2.4,5,3.2,8.2,4.1c4.1,0.9,8.4-1.3,12.5,1.3c1.9,1.3,2.6,3.7,5.4,4.1c2.8,0.4,5,2.1,6.3,4.7
	c1.3,2.6,3.4,4.5,5.8,5.4c2.4,0.9,6,1.9,7.6,1.3c3.5-1.1,7.8-0.6,10.4-4.7C804.6,553.3,805.1,551.8,802.3,550.5z"/>
<path class="st0" d="M971.6,336.4c-1.9-2.1-3.4-0.4-3.4,1.1c-0.4,2.6-0.7,5.6,1.3,7.8c2.8,3,5.8,5.8,9.5,7.8
	c6.2,3.5,12.5,5.2,19.2,0.7c0.9-0.7,2.2-1.7,3.4-1.5c4.8,0.4,4.3-3.2,4.8-6.2s-1.3-3.2-3.2-3.4c-1.3,1.1-2.2,0.4-2.8-0.6
	c-0.6-0.9-0.9-1.9,0.7-2.6c1.3-0.6,0-1.3-0.6-1.9c-6.3-5.4-20.7-4.8-25.2-1.3C973.7,337.5,972.7,337.7,971.6,336.4z"/>
<path class="st0" d="M1238.4,436.5c4.5-2.2,5.2-6.7,1.7-10.6c-0.8-0.9-2.6-2.1,0.6-2.1c0.4,0,0.9-1.9,2-2.2c-3-1.5,0.4-4.3-1.1-6.2
	c-1.1-3.2-1.3-6.7-3.9-9.5c-1.3-1.3-1.7-0.6-2.4,0.4c-0.7,0.9-0.6,1.9-0.7,2.8c-0.6,3.7-3.6,7.3-6.2,7.1c-0.7,0-1.5-0.9-1.9,0.2
	c-0.4,1.3,1.3,0.9,1.7,1.5c0.7,1.1,3.7-0.2,2.6,1.9c-0.9,1.9-1.3,3.9-1.7,5.8c-0.4,1.3-0.9,3.4-3.2,1.3c-0.6-0.6-2.8-0.7-2.6,0.9
	c0.2,1.9-0.9,3.4-0.4,5c1.3,5-0.4,10.1-1.3,14.7c-0.9,3.9,1.7,4.8,3.4,6c1.7,1.3,3.5-0.7,5-2.1c3.4-2.8,3-8.6,8-10.3
	c0.9-0.4,0.4-1.3,0-1.9C1236.8,438,1236.8,437.3,1238.4,436.5z"/>
<path class="st0" d="M1013.8,205c0.8,0.2,1.1,1.1,0.9,1.9c-0.4,2.8,1.1,3.9,3.7,4.1c0,1.5-0.6,2.6-1.3,3.7
	c-2.4,3.4-1.9,8.4,1.1,11.2c0.9,0.9,1.5,1.7,1.9,3c0.9,4.3,1.1,8.4,0.2,12.5c-0.6,2.4-0.4,4.8,2.1,5.8c3.9,1.5,5.4,4.8,6.5,8
	c1.9,4.8,7.3,5.8,10.1,9.3c0.2,0.4,1.1,0,2.2,0c-7.8-7.1-11.4-16-14.5-25.2c-0.6-1.3-1.1-2.8-0.6-3.9c1.1-2.2,0.9-4.3,0.2-6.7
	c-1.1-3.7,1.1-6,4.8-6.2c3.2-0.2,5.2,2.6,8,2.4c3,0,5.8-0.2,8.4,2.2c0.8,0.6,2.1,0.6,3.2,0.7c1.1,0.9,2.2,0.7,3.5,0.4
	c-0.9-0.4-1.9-0.7-2.6-1.1c0-0.6-0.2-0.9-0.2-1.5c0.4-3-0.4-5-4.1-5.6c-2.6-0.4-5.4-1.3-7.5-3c-1.5-1.1-3.7-2.1-3.2-4.1
	c0.6-2.1,2.2-3.4,4.5-3.9c3.2-0.7,6-2.6,8.6-4.3c1.1-0.7,1.9-1.5,1.9-3c0.2-3.4,0.4-6.7,0.8-10.1c0.2-2.6-0.9-3-3-2.8
	c-4.8,0.6-9.1,2.6-12.7,6c-1.1,1.1-2.8,2.2-0.8,4.7c1.5,1.7,0,3.5-2.2,3.7c-3.5,0-5,2.1-5.4,5.2c-0.8,4.7-3.2,5.8-7.1,3.4
	c-0.7-0.4-1.5-0.7-2.2-1.1c-1.3-3-0.4-4.8,2.4-6.5c4.7-2.6,8.2-6.3,9.3-11.9c0.8-3.7-0.6-9.1-2.8-10.1c-3.4-1.5-3.5-3.4-0.6-5.8
	c2.1-1.7,3.4-3.9,4.3-6.3c-1.3-0.6-2.4-0.6-3.3,0.4c-5,5.2-11.2,9.9-11.9,17.9c-0.4,3.9-1.9,7.3-3.5,10.8
	C1011.3,200.7,1009.3,203.9,1013.8,205z"/>
<path class="st0" d="M640.3,498.5c-0.2-0.6-0.7-1.1-1.1-1.5c-3.2-3.4-7.5-4.3-11.6-5.8c-2.4-0.7-3.7,1.3-5.4,2.6
	c-0.4,0.4-1.1,0.4-1.9,0.4c-5.8,1.3-10.8-2.2-16.6-2.1c0,0.6-0.2,1.7,0.2,2.2c1.9,3,3,6.5,8,6.3c5.6-0.4,9,4.3,12.7,7.6
	c2.1,1.9,3.7,4.5,5.4-0.2c0.4-0.9,1.5-1.1,2.4-1.5c2.2-0.7,4.5-1.5,6.5-2.4c1.5-0.7,3-1.7,3.5-3.2
	C643.5,499.4,640.9,499.9,640.3,498.5z"/>
<path class="st0" d="M662.5,496.4c-2.8,1.7-5.4,3.9-8,6c-1.7,1.5,1.3,2.4,0.7,3.9c-0.2,0.4,0,0.9-0.2,1.5c-0.2,4.3-1.3,5.2-5.6,5
	c-0.6,0-1.5-1.1-1.7,0.2c-0.2,0.9,0.7,0.9,1.3,1.3c2.8,1.5,6,0.9,8.8,1.5c4.7,1.1,7.8,0.9,10.3-2.4c2.6-3.5,4.8-7.5,6.5-11.6
	c0.4-1.1,0.2-1.9-0.6-2.6C672,497.1,664.9,494.9,662.5,496.4z"/>
<path class="st0" d="M390.3,337.9c1.9-0.4,4.8,0.4,5.2-3.4c0.2-1.9,1.5-2.2,2.8-0.7c0.9,1.1,2.2,2.1,2.4,3.5
	c0.2,1.5,1.5,1.3,2.2,0.7c3.9-2.8,5-7.5,6.7-11.6c0.4-0.9-0.2-2.2-1.1-3c-3.4-3.5-7.6-5.4-12.9-6c-1.3,1.3-4.7-0.7-5,1.9
	c-0.9,4.8-2.4,9.9-1.9,14.9C388.8,335.7,388.6,338.3,390.3,337.9z"/>
<path class="st0" d="M549.3,461.2c0,1.1,1.1,0.7,1.7,0.6c2.6-0.4,5.2,0.6,7.6,1.3c0.9,0.2,2.2,0.9,2.8,0.2c1.1-1.3,1.3-1.1,2.8-0.2
	c3.2,1.7,7.3-0.2,10.8,0.9c0.2,0,0.6-0.6,0.6-0.9c0.9-3,3.4-2.8,5.8-2.6c1.1,0,3,0.4,3.2,0c1.5-3.5,5.2-3,8-4.5
	c-2.2-2.2-4.7-3-7.3-2.6c-8,1.1-16.2,0.9-24.2,0.4c-5-0.4-8.8,1.1-11.9,4.8C548.7,459.7,549.3,460.4,549.3,461.2z"/>
<path class="st0" d="M873.5,406.7c2.6,0.4,4.1-1.1,5-3c0.9-1.9-1.5-2.1-2.4-3.2c-0.7-0.7-1.5-1.5-2.8-1.9c-1.1-0.4-1.7-1.3-1.5-2.6
	c0.2-2.8,0.4-5.8,1.7-8.4c1.1-2.2,2.6-3.5,5.4-1.9c0.2-2.6,0-4.7-1.5-6.3c-1.1-1.5-2.6-3.7-3.9-3.7c-2.4,0.2-3.5,2.6-4.5,4.8
	c-1.3,3-0.2,6.2-0.9,9.1c-1.5,6.5-3,12.9-7.3,18.1c-2.1,2.4,0,4.3,0.9,6c0.9,2.1,3.4,1.5,4.7,0.9c1.5-0.6,2.4-2.6,2.6-4.3
	C869.3,407.8,870.6,406.2,873.5,406.7z"/>
<path class="st0" d="M79.6,202.5c-3-1.3-4.7-3.5-6.2-6c-0.7-1.3-1.7-2.6-2.6-3.5c-1.5-1.5-3.5-2.4-5.2-0.7c-1.5,1.5-3.4,1.9-6,2.2
	c4.1,3.2,5.8,7.3,7.8,11.2c0.4,0.6,0.7,1.7,1.3,1.9c5,1.3,6.7,5.4,8,9.7c0.6,1.7,1.5,3,3.4,2.6c1.7-0.4,2.6-1.7,2.6-3.5
	c0-2.1-0.4-4.3,0.4-6C85.6,205.9,82.4,203.9,79.6,202.5z"/>
<path class="st0" d="M121.6,281.4c-2.1-3.5-3.7-7.3-5.6-10.8c-1.3-2.2-0.9-3.9-4.5-2.8c-3.5,1.1-6.5,6.7-4.5,9.9
	c2.1,3.4,4.7,6.2,6.2,9.7c0.9,2.1,6.5,6.3,9.1,6.3c2.4,0.7,2.8-2.1,4.3-3.4c0.2-0.2,0.2-1.3-0.2-1.3
	C123.6,287.4,123.1,284,121.6,281.4z"/>
<path class="st0" d="M1144.8,461.3c-1.7-0.2-3.2,0.2-4.1,1.9c-1.7,3.5-4.5,6.2-7.5,8.8c-3.7,3.4-2.6,9.3-5.2,11.9
	c-1.1,4.7,1.7,4.3,3.5,4.8c2.1,0.6,2.8,0,3.2-2.2c0.4-2.8,2.6-4.3,4.8-5.8c4.5-3,6.3-7.1,5-12.5c-0.4-1.3-1.1-3.2,0.8-4.5
	c0.6-0.4,1.7-0.2,1.3-1.3C1146.3,461.7,1145.6,461.3,1144.8,461.3z"/>
<path class="st0" d="M850.2,404.9c0.6,2.1,3.2,0.9,4.8,1.5c0.4,0.2,0.7,0.2,1.1,0.4c1.3,0.6,2.6,1.3,3.7-0.2c1.1-1.3,1.9-3,0.9-4.5
	c-2.2-3.4-0.4-5.6,2.1-7.6c1.3-1.1,2.6-2.2,2.2-3.7c-0.4-2.6-0.7-4.3-1.1-6.2c-0.4-2.2-1.3-2.2-3.2-1.3c-1.9,0.9-3.2,2.8-5.4,3
	c-3.5,0.4-4.1,2.2-2.8,5.2c1.1,2.2,1.5,4.5-0.6,6.7C850.4,399.8,849.7,402.6,850.2,404.9z"/>
<path class="st0" d="M928.7,290.4c-1.9-0.7-3.9-1.1-5.8-0.9c-0.9,0-2.1,0-3,0.2c-3.4,0.4-5.2,2.8-4.8,6.2c0.2,3.2,2.2,4.5,5.8,4.5
	c1.7,0,3.2-0.7,4.7-1.3c3-0.9,5.8-3,9.1-1.1c0.4,0.2,1.3,0,1.7-0.2c1.7-1.7,3.9-1.1,6-1.3c1.1,0,3,1.1,3.2-1.1
	c0.2-1.9-0.7-3-2.8-3.2C937.9,291.3,933.2,292,928.7,290.4z"/>
<path class="st0" d="M1030.5,291.1c1.5,0,3.2,0.2,3.7-1.7c0.4-1.7-1.1-2.2-2.2-3c-2.4-1.5-4.7-2.8-7.1-4.3
	c-3.7-2.2-6.9-2.8-10.8,0.2c-2.6,1.9-3.2,4.5-2.6,6.5c0.5,2.1,3.7,3.7,6,2.6c3.9-1.9,7.8-0.9,11.8-0.6
	C1029.6,291.1,1030,291.1,1030.5,291.1z"/>
<path class="st0" d="M1270.5,264.1c4.7-2.4,4.7,0.9,5,3.9c0.7,5.4,0.7,5.4,6.3,6.2c0.4,0,0.7,0.2,1.1,0.4c3.5,1.9,6.7,0.7,9.7-1.7
	c-1.3-2.8-4.3-0.6-6-2.6c-3.3-4.5-5.8-9.3-13.2-9.5c-3.4,0-7.5-0.6-11.2-2.4C1263.2,260.5,1269.4,264.8,1270.5,264.1z"/>
<path class="st0" d="M966.8,485c3.7-0.7,7.1,0.2,10.6,0.7c2.2,0.4,4.3,0,5.8-1.7c2.2-2.4,4.8-3.7,8.6-4.1c-3.9-3.4-7.5-5.8-11.7-2.4
	c-3.5,2.8-7.3,2.8-11.2,1.5c-1.1-0.4-2.1-1.1-3,0c-2.2,2.6-5,5-5,9.3C963,487.5,964.4,485.6,966.8,485z"/>
<path class="st0" d="M1039.9,174.2c4.3,0.2,7.1-1.3,8.9-5.2c0.9-2.1,1.7-4.1,2.2-6.3c0.8-2.2-2.8-6.5-4.7-6
	c-4.1,1.1-8.6,7.5-8.6,11.9c0,1.3,0,2.8,0.6,4.1C1038.8,173.6,1038.9,174,1039.9,174.2z"/>
<path class="st0" d="M1264.9,289.2c0.4,0.4,0.7,0.7,1.1,0.7c6.3,0,11.7,2.8,17.5,4.7c8.2,2.8,16.6,2.6,24.8-0.6
	c-0.2-0.9-0.9-0.9-1.5-1.1c-14.2-1.5-28.2-4.5-42.3-4.5C1264.6,288.7,1264.7,289.1,1264.9,289.2z"/>
<path class="st0" d="M1104,300.6c2.8-1.1,2.4-3.4,2.1-5.2c-0.6-1.7-0.8-4.7-3.7-4.3c-6.1,0.7-11.9,2.4-17.9,5.8
	C1090.8,300.8,1096.7,303.4,1104,300.6z"/>
<path class="st0" d="M916.8,499.2c-0.4,0.7-1.3,1.5-0.9,2.2c0.6,0.9,1.7,0.7,2.6,0.6c6.2-0.9,12.1-2.4,18.5-2.8c1.5,0,3-0.6,2.6-2.6
	c-0.4-1.7-0.6-3.4-2.8-3.2c-0.9,0-2.1,0-3,0.2c-3.4,0.7-7.3-1.1-10.4,1.1c-0.2,0-0.4-0.2-0.6-0.2c-3.4-2.4-3.4-2.4-5.4,1.7
	c1.5,0,2.6-1.7,4.5-0.4C920,497.1,917.7,497.5,916.8,499.2z"/>
<path class="st0" d="M662.1,354.5c-1.1-4.8-2.1-9.7-1.3-14.7c-3.7,1.7-8.6,10.4-7.1,13.6c1.7,3.5,2.4,6.7,0.9,10.6
	C661.2,361.4,663,359,662.1,354.5z"/>
<path class="st0" d="M1012.8,261.3c0.2,1.1,0.9,2.1,2,1.3c2.2-1.3,3.5-0.6,5,1.3c1.3,1.7,3.2,1.7,5,0.2c0.7-0.6,1.7-1.3,0.9-2.4
	c-1.1-1.7-2.6-1.7-4.3-1.3c-1.3,0.4-2.4,0.6-3.2-0.9c-0.6-1.3-1.7-2.6-0.2-3.9c2-2.1,0.7-3.5-0.6-5.6c-1.3-2.1-2.6-1.5-4.3-0.6
	c-0.6,0.4-1.3,0.7-2,0.4c-3.2-1.5-2.6,1.3-3.4,2.8c0.4,0.6-0.4,1.5,0.6,2.1C1011.3,255.9,1012.1,258.5,1012.8,261.3z"/>
<path class="st0" d="M1117.1,243c3.3,2.1,5.6,6.9,10.8,5c0.6-0.2,1.3-0.2,1.9,0.2c1.9,1.1,3.2,1.3,3.9-1.1c0.8-2.1,0-3.5-1.9-4.7
	c-3.7-2.4-8.4-2.1-12.3-3.7c-1.9-0.6-2.6,1.5-4.3,1.7C1115.8,241.1,1116.1,242.4,1117.1,243z"/>
<path class="st0" d="M1126.2,269.1c0-0.9-0.4-1.9-1.7-2.1c-3.6-0.4-7.3-0.6-10.8,1.7c0.9,1.3,1.9,2.4,1.7,4.3
	c-0.2,2.4,4.7,6.9,6.7,6.7c3.4-0.4,2.8-3.5,3.4-5.8C1126,272.5,1126.2,270.8,1126.2,269.1z"/>
<path class="st0" d="M36,159.7c-2.2-0.9-4.7-2.2-6.2-4.1c-2.6-3.5-7.8-3.9-9.9-8c-0.2-0.4-1.1-0.4-1.7-0.6c-1.7-0.2-2.1,1.5-3,2.4
	c-0.9,0.9-0.6,2.1,0.4,3c1.5,1.1,3,2.6,5.2,3c4.8,1.1,9.3,3.5,12.7,7.3c1.3,1.3,2.4,1.5,3.9,1.5c0.4,0,0.9-0.7,0.9-0.9
	C37.7,161.9,37.7,160.2,36,159.7z"/>
<path class="st0" d="M404.4,117.5c0.9,0.6,2.1,0.9,3.2,1.3c-0.2,1.9-3.2,1.9-2.1,3.7c0.7,1.3,2.6,0.7,3.9,0.4c3-0.7,5-7.3,3.2-9.7
	c-1.3-1.7-3.4-2.8-3.9-5.2c-0.2-1.1-1.7-0.7-2.4,0c-0.9,0.9-1.7,1.9-2.6,2.6C401.1,112.5,401.4,116,404.4,117.5z"/>
<path class="st0" d="M199.1,183.9c3,0,5.8-3.2,5.6-7.5c0-2.1-1.5-4.1-3.9-4.3c-3.5-0.4-7.1,2.2-7.1,4.8
	C193.7,180.9,196.2,183.7,199.1,183.9z"/>
<path class="st0" d="M876.5,275.1c-5.8-0.4-8.4,1.1-9.9,5.8c-0.9,3.2,0.9,5.2,2.6,6.2c1.7,0.9,3.4-1.9,3.9-3.5
	c0.7-2.2,2.1-3.9,4.1-5c0.6,2.4,2.1,4.8,0.9,7.5c-0.4,0.7-1.7,0.9-1.1,2.1c0.2,0.2,0.9,0.4,1.3,0.4c1.5,0,1.3-1.3,1.5-2.1
	c0.6-1.5,0.2-3.5,2.6-3.9c0.2,0.2,0.4,0.4,0.6,0.6c1.3,1.5,2.6,3.9,5,1.3c1.7-1.9,2.4-4.1,0.6-6c-1.9-1.9-4.3-1.9-5.8,0.9
	c-0.4,0.7-0.7,1.5-1.1,2.4c-2.6,0.9-2.2-2.1-3.5-3C880.6,275.8,879.7,275.3,876.5,275.1z"/>
<path class="st0" d="M885.3,571.7c-3-1.3-0.4-2.6-0.2-3.9c-1.9-0.6-3.4,0.2-4.3,1.3c-3.2,3.7-6.7,6.7-11.9,7.1
	c-2.8,0.2-1.5,2.2-1.3,3.5c0.6,2.1,2.6,0.9,3,0.4c0.9-1.1,2.2-0.9,3.2-1.5c1.9-1.1,4.7-0.2,5.8-2.2c1.1-2.1,2.6-2.8,4.5-3.4
	C885.1,572.8,886.4,572.3,885.3,571.7z"/>
<path class="st0" d="M284.5,206.3c1.1-0.2,2.4-0.2,3.4-1.1c0.6-0.6,1.3-0.7,2.1-0.2c0.9,0.6,0.4,1.3,0,2.1c-1.1,1.9,0.2,3,1.3,3.9
	c1.1,0.9,2.6,2.1,4.1,1.3c2.1-0.9,0-2.6,0.4-3.9c0.2-0.4-0.2-0.9-0.2-0.6c0.2-2.1-2.1-6.9-2.6-6.9c-3.2,0.6-6.5,0-9.1,2.4
	c-0.7,0.6-0.9,1.1-0.7,1.9C283,205.9,283.6,206.5,284.5,206.3z"/>
<path class="st0" d="M1105.9,244.9c0.2-0.2,0.2-0.2,0.4-0.4c-1.3,0-2.6,0.2-4.3,0.2c1.1,0.7,1.9,1.3,2.8,1.1
	c1.7,0.7,4.8-2.1,5.2,2.1c0.6-0.2,1.1-0.2,1.5-0.4c1.9-0.6,3.3-0.9,3.5,1.7c0.2,2.1,1.7,2.2,3.3,2.1c1.5-0.2,3-0.6,3.4-1.9
	c0.2-1.7-1.9-1.9-3-2.2c-2.8-0.9-5.6-2.4-6.3-5.2c-0.8-2.4-1.9-2.1-3.4-1.7c-0.9,0.2-1.9,0.4-3,0.6c-1.5-0.2-2.6,0-4.1,1.5
	c1.5,0,2.4-0.2,3.4-0.2c0.8,0.6,1.3,1.3,0.8,2.2C1106.1,244.7,1105.9,244.9,1105.9,244.9z"/>
<path class="st0" d="M949.8,297.6c0.7,0.4,1.9,0.2,3,0.2c5.4-0.4,10.6-0.7,16-1.3c2.2-0.2,4.7,0.6,7.1-1.5c-6.9-0.7-13.1-1.5-19.4,0
	c-2.1,0.6-4.1-0.2-6.3-0.2c-0.9,0-2.4-2.1-3,0.2C946.5,297.1,948.7,297.1,949.8,297.6z"/>
<path class="st0" d="M889.6,505.4c2.4-4.8,6.7-7.3,11.2-9.3c-2.2-1.1-3.9-1.9-6.3,0.6c-1.3,1.3-2.2,4.5-4.7,3.7
	c-4.1-1.1-6.2,1.3-8.4,3.9C884,507.8,887.3,504.4,889.6,505.4z"/>
<path class="st0" d="M448.6,278.1c2.4-1.3,4.8-2.6,7.1-4.1c1.1-0.7,0.2-4.7-0.6-4.3c-1.9,0.7-3-1.1-4.5-0.2
	c-2.4-0.6-3.4,0.6-3.5,2.8c0,1.1-0.4,2.2-0.7,3.4c-0.2,0.7-1.3,1.3,0,2.2C446.9,278.2,447.7,278.4,448.6,278.1z"/>
<path class="st0" d="M837.4,397.8c-2.1,2.6,0,9.7,3.2,11c0.9,0.4,1.7,0.2,1.9-0.9c0.2-1.1,0.4-2.2,0.6-3.4c0.4-2.6-0.9-4.7-2.2-6.5
	C839.8,396.3,838.3,396.3,837.4,397.8z"/>
<path class="st0" d="M989.5,110.6c-0.4,0.7-0.6,1.5,0.2,1.9c0.7,0.4,1.5,0.4,1.9-0.6c1.3-2.8,2.4-5.6,3.7-8.4
	c-0.6-1.9-1.1-3.7-1.7-5.4c-0.4-1.1-1.3-1.5-2.2-1.5c-1.3,0-1.5,1.1-1.5,2.1c0,2.2-2.1,4.8,1.7,6.2c0.9,0.4,0.7,1.5,0.2,2.2
	C991,108.2,990.3,109.3,989.5,110.6z"/>
<path class="st0" d="M216.5,191.7c4.3,0.6,7.8,2.4,11.2,5.6c-0.2-2.4,1.1-5.6-1.5-6.5c-4.1-1.5-8.6-1.7-13.2-3.5
	C213.7,189.9,214.8,191.5,216.5,191.7z"/>
<path class="st0" d="M236.1,205.5c1.1,0.4,2.2,0.6,3.2,1.1c2.4,1.3,4.7,2.8,7.1,4.3c0.7,0.6,1.9,1.1,2.4-0.4c0-0.2-0.2-0.4-0.2-0.7
	c-1.1-2.8-9-8.2-11.7-7.8c-1.5,0.2-2.2,1.1-2.4,2.4C234,205.9,235.1,205.3,236.1,205.5z"/>
<path class="st0" d="M158.7,327.3c-0.7-0.6-1.1-2.1-2.2-1.7c-1.5,0.6,0,1.9-0.2,2.6c-0.4,3,0.2,5,2.8,6.2c0.6,0.2,0.9,0.7,1.3,1.3
	c0.7,0.9-0.6,3,0.9,3.2c2.2,0.4-0.7-1.9,0.9-2.6c3.2-1.5,1.7-3.7,0.2-5.4C161.3,329.5,159.8,328.6,158.7,327.3z"/>
<path class="st0" d="M287.1,258.7c0.2-4.3,2.2-2.1,3.5-1.1c0.9-1.3,1.1-2.8,2.1-4.1c1.3-1.3-0.4-2.4-0.9-3.5
	c-0.6-0.7-1.5-1.5-2.2-0.6c-1.3,2.1-4.5,1.3-5.2,2.2c-1.5,2.2,2.6,3.7,2.2,6.3C286.6,257.9,286.8,258.1,287.1,258.7z"/>
<path class="st0" d="M1039.5,348c-0.7-0.4-1.5-0.4-2.1,0.2c-1.3,1.9-3.3,1.9-5.2,2.2c-1.3,0.2-2.4,0.9-3.5,2.1
	c-0.8,0.7-1.1,1.7-0.4,2.6c0.7,0.9,1.5,0,2.2-0.4c1.9-1.1,3.5-2.2,5.4-3.2c0.2-0.2,0.6,0.2,1.1,0.6c-0.8,0.7-1.3,1.5-2.2,2.8
	c3.7-0.6,5.6-2.4,5.6-4.8C1040.2,349.1,1040.2,348.4,1039.5,348z"/>
<path class="st0" d="M907.1,499.9c-2.8-2.8-3.4,0.2-5.4,2.1c2.8-0.7,4.5-0.6,4.8,1.9s1.7,1.7,2.4,0.6c1.9-3,4.7-5.8,5-10.6
	c-2.1,2.2-3.5,3.7-5,5.4C908.4,499.8,907.7,500.5,907.1,499.9z"/>
<path class="st0" d="M1083.5,482.4c-1.9-0.2-3.2,0.6-3.2,1.9c-0.2,1.5,3,5.6,4.5,5.4c2-0.4,3.2-2.4,3.4-3.9
	C1088.2,483,1085,483.3,1083.5,482.4z"/>
<path class="st0" d="M874.3,363.3c-1.7-0.2-2.2,0.7-2.8,2.1c-0.4,0.9,3,5.4,4.3,5.2c2.6-0.2,3.2-2.4,4.1-3.9
	C880.1,364.6,878.6,363.6,874.3,363.3z"/>
<path class="st0" d="M291.8,238c-0.9,0.6-0.4,1.7-0.2,2.4c0.2,0.9,0,1.7-0.9,2.2c-0.6,0.6-1.7,0.7-1.3,1.9c0.4,1.1,1.9,0.4,2.6,0.9
	c2.1-0.6,4.8-0.7,5.6-2.6c0.7-1.7-1.9-3-3.2-4.1C293.9,238.3,292.9,237.4,291.8,238z"/>
<path class="st0" d="M154.4,320.8c-1.5-1.3-3.5-2.1-5-3.9c0,3,0.9,5.8,0.6,8.6c0,0.6,0.6,0.4,0.9,0.6c2.2,1.1,3.5-0.6,4.7-1.9
	C156.6,322.8,155.3,321.5,154.4,320.8z"/>
<path class="st0" d="M138.4,302.1c-0.7-0.6-1.5-0.9-2.2,0c-1.1,1.5-0.2,6.3,1.3,6.7c2.2,0.4,3.9,2.4,6.7,2.2
	c-1.5-1.3-2.4-2.8-3.4-4.5C140.2,305.1,140,303.2,138.4,302.1z"/>
<path class="st0" d="M965.8,300.2c-0.6-0.4-0.9-0.4-1.3,0c-0.9,0.7-1.1,1.9-1.3,3.2c0.4,1.1,0.6,2.8,1.3,3.9
	c0.9,1.5,1.5,2.8,1.9,4.5c0.4,1.3,0.9,3,2.1,2.6c1.7-0.6,0.2-2.1,0-3.2c-0.7-2.6-3.2-4.8-2.2-8C966.6,302.3,967.1,301.2,965.8,300.2
	z"/>
<path class="st0" d="M1243.1,437.5c0,2.2-4.5,2.2-2.8,4.8c0.9,1.5,0,2.6,0,3.7c-0.6,0.9-2.1,1.9-1.1,3c0.7,0.7,1.5-0.6,1.9-1.5
	c1.7-4.3,5-7.6,5.8-13.4C1245,435.8,1243.1,436.7,1243.1,437.5z"/>
<path class="st0" d="M949.8,124c1.7,0.6,2.2,1.7,1.7,3.7c-0.6,1.5,0.4,2.6,1.9,3.4c0.7,0.4,1.5,1.3,2.2,0.6c0.6-0.4,0.9-1.7,0.7-1.9
	c-2.2-2.2-2.4-5.8-5-7.8c-0.7-0.6-1.7-0.9-2.2,0C948.3,123.1,949.1,123.9,949.8,124z"/>
<path class="st0" d="M882.1,498.1c0.4-1.9-0.7-1.7-1.9-1.7c-3.2-0.2-5.8,0.9-7.3,4.7c2.8-0.2,5-0.7,7.1-0.6
	C881.9,500.5,881.9,499.6,882.1,498.1z"/>
<path class="st0" d="M257.5,217.5c0.9,0.4,2.2,0.6,2.1-0.9c-0.4-2.6,0-5.4-1.5-8c-1.3,0.4-0.6,1.7-1.5,2.4
	C254.5,212.2,255.3,216.5,257.5,217.5z"/>
<path class="st0" d="M1003.7,253.8c2.8,0.2,3-2.4,3-4.1c0-0.9,0.6-3.4-1.9-3.4c-2.8,0-2.8,1.9-2.4,4.5
	C1003,251.4,1001.3,253.6,1003.7,253.8z"/>
<path class="st0" d="M1176.9,414c-0.7,0.4-0.4,1.1-0.2,1.7c0,0.6,0.2,1.1,0.2,1.9c0,0,0,0-0.2,0c0.2,1.3,0.2,2.4,0.4,3.7
	c0,1.5,0.7,2.6,2.2,2.4c1.3-0.2,1.3-1.7,1.3-2.6c0.2-2.2-1.3-3.9-2.2-5.8C1178,414.4,1177.8,413.4,1176.9,414z"/>
<path class="st0" d="M690.6,12.7c2.2,0,2.1-2.1,1.9-3.4c-0.2-2.1-1.9-1.3-3-0.9c-3,0.7-3.7,3-3,6C687.8,13.9,689,12.9,690.6,12.7z"
	/>
<path class="st0" d="M276.3,206.5c2.1,0,3-1.5,3.2-2.8c0.2-3.7-2.8,0-3.4-2.1c-1.5,0.6-3.2,1.3-3,3
	C273.3,206.5,275.2,206.6,276.3,206.5z"/>
<path class="st0" d="M837.6,566.1c-1.3,1.9-3.4,2.6-5.2,4.3c3.2,1.3,5.6,0.6,7.6-1.5c0.7-0.7,1.3-1.7,0.4-2.4
	C839.8,565.9,838.3,564.8,837.6,566.1z"/>
<path class="st0" d="M1192,404.3c-1.1-0.4-1.3,0.7-1.7,1.5c-1.3,3-2.4,6-3.7,8.9c-0.4,0.6-0.8,0.9-1.1,1.5c-0.8,1.7-2.1,3.2-0.4,5
	c0.2-1.5,0.4-2.8,1.1-4.3c0.6-0.7,0.9-1.5,1.5-2.2c3.3-1.9,3.5-5.4,4.7-8.6C1192.6,405.6,1192.9,404.7,1192,404.3z"/>
<path class="st0" d="M712.3,111c0.6-0.4,0.4-1.1,0.2-1.7c-0.7-3-4.1-2.6-5.6-4.3c-1.1,0-1.7,0.2-1.9,0.7c-0.4,0.7,0.2,1.1,0.7,1.5
	c1.5,1.3,3.2,2.4,4.7,3.5C711,111.2,711.7,111.4,712.3,111z"/>
<path class="st0" d="M101.2,247.5c-0.7-0.2-2.2,1.1-2.2,2.8c0,0.7,0,1.5-0.4,2.2c-0.4,0.9-1.3,1.9,0,2.4c1.3,0.7,2.1-0.6,3-1.3
	c0.9-0.7,0.4-2.1,0.6-3.2C102.4,249.3,102.6,247.5,101.2,247.5z"/>
<path class="st0" d="M630.2,455.8c0,0.6,0.9,0.4,1.5-0.7c0.4-0.9,1.1-0.7,1.9-0.7c1.7,0.2,3.2,0.7,4.8,1.1c-1.9-2.8-4.7-2.8-7.3-3.2
	c-1.5-0.2-2.2,0.7-2.6,1.7C627.6,455.4,630.2,454.3,630.2,455.8z"/>
<path class="st0" d="M1023.6,492.5c0,0.4,0,0.9,0.2,1.3c1.9,2.4,6.9,2.6,9.5-0.2c-3-0.2-5.6,0-8-1.3
	C1024.9,492.1,1024.4,492.3,1023.6,492.5z"/>
<path class="st0" d="M1247,273c1.5,0,2.2-0.9,2.2-2.4c-0.4-1.7-1.5-2.6-3.4-2.8c-1.5-0.2-1.9,1.3-1.7,2.2
	C1244.8,271.3,1245.3,273,1247,273z"/>
<path class="st0" d="M507.9,163.4c-2.1-3.5,0.6-7.8-1.9-11.6C504.2,155.4,505.1,161.3,507.9,163.4z"/>
<path class="st0" d="M700,500.7c2.2-2.4,2.8-5,5-6.7C700.1,493.4,700.1,493.4,700,500.7z"/>
<path class="st0" d="M113,234.4c-2.8-2.2-6.3-2.4-9.3-0.6C106.7,235.9,109.8,235.4,113,234.4z"/>
<path class="st0" d="M329.1,149.2c2.2-1.5,3.9-2.2,3.4-4.3c-0.2-0.9-2.2-2.1-3-1.5C327.4,144.7,329.5,146.6,329.1,149.2z"/>
<path class="st0" d="M250.2,221.4c1.3-0.2,2.6-0.2,2.6-2.1c-0.4-1.3-0.7-2.6-2.2-2.6c-1.9,0-1.7,1.9-2.1,3.2
	C248.4,221,249.1,221.6,250.2,221.4z"/>
<path class="st0" d="M1112,254.2c0.9,0,2.1-0.7,1.9-1.9c-0.2-0.9-1.3-1.5-2.4-1.1c-1.3,0.6-3,0.6-3.9,1.9
	C1108.8,254.8,1110.5,254.4,1112,254.2z"/>
<path class="st0" d="M316,449c-0.6,0.6-1.9,0.7-1.5,1.9c0.6,1.5,1.3-0.2,2.1-0.2c1.1,0.2,2.2,0.4,3.5,0.6c-0.6-1.5-1.7-2.6-1.7-5.2
	C317.3,447.5,316.6,448.3,316,449z"/>
<path class="st0" d="M1004.3,261.7c0.8,1.1,2.2,1.1,3.9,0.6c-1.1-1.5-0.9-3.4-2.8-4.8C1004.8,259,1003.3,260.2,1004.3,261.7z"/>
<path class="st0" d="M701.3,132.4c0.4,1.3,1.1,2.4,2.4,2.6c1.5,0.2,1.1-1.3,1.1-2.2c0.4-1.7-0.9-1.7-2.1-1.9
	C702,131.1,700.9,131.1,701.3,132.4z"/>
<path class="st0" d="M1115.9,264.3c-2.8-0.2-5.6-0.6-8.2,1.1c2.8,0,5.4,0,8.2,0C1116.1,265,1116.1,264.6,1115.9,264.3z"/>
<path class="st0" d="M866.8,492.3c-0.4,0.2-0.6,1.3-0.4,1.5c0.6,0.9,1.5,0.6,2.2,0.4c0.9-0.2,1.9,0.6,2.8-0.4c0-1.3-1.1-1.3-1.9-2.1
	C868.5,490.6,867.6,491.9,866.8,492.3z"/>
<path class="st0" d="M548.2,417.5c-1.3,0.2-2.4,0.9-2.6,2.2c-0.2,1.1,0.7,0.9,1.5,0.9c1.3,0,2.4-0.2,2.6-1.7
	C549.7,417.9,549.1,417.3,548.2,417.5z"/>
<path class="st0" d="M1049.4,459.9c-0.9,0.2-2.1,0.7-2.1,1.9c0,0.9,1.3,1.7,2.2,1.7c1.1,0,1.1-1.3,1.7-2.2
	C1051.1,460.2,1050.3,459.7,1049.4,459.9z"/>
<path class="st0" d="M361.7,330.3c0.4,1.5,2.1,1.7,3.4,1.9c0.9,0.2,1.1-0.7,1.1-1.5c-0.2-1.5-1.5-1.3-2.4-1.7
	C362.8,329.1,361.5,329.3,361.7,330.3z"/>
<path class="st0" d="M762.6,506.5c0.6-0.4,1.5,0.9,1.7-0.6c0.2-1.3-0.7-1.3-1.5-1.7c-0.4-0.2-0.7-0.6-1.7-0.9c0.7,2.2-2.2,3-1.3,5.2
	c0.4,0.9-0.7,2.1,0.6,3c0.4-1.1,0.6-2.1,0.7-3C761.3,507.6,761.9,507,762.6,506.5z"/>
<path class="st0" d="M703.5,110.6c-0.2,1.5,0.9,2.1,2.1,2.2c0.9,0.2,1.7-0.7,1.7-1.7c0-1.3-1.3-1.7-2.2-2.4
	C703.9,109.1,703.5,109.7,703.5,110.6z"/>
<path class="st0" d="M303.4,247.1c0.9-0.4,0.4-1.1,0-1.9c-1.3-2.8-3.2-0.2-4.7-0.4C300.4,245.8,301.3,248,303.4,247.1z"/>
<path class="st0" d="M1123.2,494.2c-0.7,0.4-1.3,0.9-1.1,2.1c0.9,0,1.5-0.4,2.1-0.9c1.5-0.6,3.2-0.7,4.5-2.1
	C1126.6,491.9,1124.5,491.2,1123.2,494.2z"/>
<path class="st0" d="M664.9,350.4c0.4-1.9,0.7-3.7,1.1-6C662.7,347.2,662.5,348,664.9,350.4z"/>
<path class="st0" d="M638.1,510.2c-0.7,0.2-1.9,0.4-1.9,1.3c0.2,1.1,1.5,1.5,2.4,1.7c0.9,0.4,1.5-0.2,1.3-1.1
	C639.9,510.9,639.2,510.4,638.1,510.2z"/>
<path class="st0" d="M1149.1,461.7c2.4-0.6,3.7,1.1,5.4,2.8C1153.8,460.4,1153.4,460.2,1149.1,461.7z"/>
<path class="st0" d="M97.9,238.2c0.4,3,1.9,4.7,3.5,7.1C101.8,241.5,100.7,239.6,97.9,238.2z"/>
<path class="st0" d="M426.8,288.1c0.2,0.7,0.6,1.7,1.3,1.3c0.9-0.2,2.2-0.4,2.4-1.9c0-1.3-1.1-1.1-1.9-1.1
	C427.9,286.6,426.6,286.6,426.8,288.1z"/>
<path class="st0" d="M692.1,126.3c-0.2,0-0.4,0.7-0.4,0.9c1.3,1.7,3.4,1.1,5,1.3c0.2,0,0.2,0,1.1-0.4
	C695.7,126.8,694.2,125.7,692.1,126.3z"/>
<path class="st0" d="M769.7,241.9c0.6,0.2,1.3-0.4,1.1-0.7c-0.6-1.1-0.7-2.6-2.2-3c-0.6,0.4-1.5,0-1.3,0.9
	C767.3,240.8,768.2,241.7,769.7,241.9z"/>
<path class="st0" d="M1044.9,348.4c-0.9-0.2-1.7,0.4-1.7,1.5c0,0.7,0,1.5,1.3,1.3c0.7-0.2,2.2-0.2,2.2-1.5
	C1046.8,348.7,1045.7,348.5,1044.9,348.4z"/>
<path class="st0" d="M61.3,169.2c1.1,1.3,2.4,2.6,4.1,4.5C64.9,169,64.5,168.8,61.3,169.2z"/>
<path class="st0" d="M1090.8,275.1c-1.9-1.7-3.4-0.7-5.8,0.2C1087.6,276.6,1089.1,276.2,1090.8,275.1z"/>
<path class="st0" d="M1011.2,473.5c-1.7,0.6-1.1,2.1-0.9,3.5c1.5-0.4,2.8-0.7,2.8-2.2C1013.2,473.7,1011.7,473.3,1011.2,473.5z"/>
<path class="st0" d="M1051.2,348.5c-0.7,0.4-1.9-0.9-2.2,0.6c-0.2,1.1,0.6,1.7,1.5,1.9c0.7,0.2,1.5,0,1.7-1.1
	C1052,349.3,1052.6,348,1051.2,348.5z"/>
<path class="st0" d="M802.5,460c-1.1-0.6-2.2-1.1-3.7-1.7C798.8,461.9,800.5,461.5,802.5,460z"/>
<path class="st0" d="M273.3,208.9c0.2,0,0.9-0.6,0.9-0.7c-0.4-1.5-2.1-1.5-3.2-3C270.4,208,272.2,208.1,273.3,208.9z"/>
<path class="st0" d="M738.9,513c1.9,1.7,3.5,2.1,5.8,1.3C743.2,512.2,741.2,513.4,738.9,513z"/>
<path class="st0" d="M882.9,561.3c0.2,0.6,0.9,0.4,1.3,0.2c0.7-0.4,1.7-0.6,1.3-1.9c-0.2-0.6-0.4-1.1-0.6-1.7
	c-0.4,0.4-0.7,0.9-1.1,1.3C883.2,560,882.3,560.4,882.9,561.3z"/>
<path class="st0" d="M884.7,558.1C884.9,558.1,884.9,558.1,884.7,558.1C884.7,557.9,884.7,558.1,884.7,558.1z"/>
<path class="st0" d="M601.7,461.3c-0.2-0.7-0.6-1.7-1.5-1.9c-0.6,0-1.1,0.2-1.1,0.7c0,1.1,0.7,1.7,1.9,1.9
	C601.3,462.1,601.9,462.1,601.7,461.3z"/>
<path class="st0" d="M1022.3,337c-1.5-0.4-2.2,0.6-2.8,1.7c1.3,0.4,2.4,0.9,3.4-0.2C1023.3,338.3,1023.1,337.2,1022.3,337z"/>
<path class="st0" d="M747.5,495.1c0.2,0.6,0.4,1.3,1.3,1.1c0.7,0,1.3-0.6,1.5-1.5c0-0.7-0.2-1.5-1.1-1.5
	C748.1,493.2,747.7,494,747.5,495.1z"/>
<path class="st0" d="M427.5,148.1c1.5-0.6,1.9-1.9,0.9-4.1c-0.9,1.7-1.5,2.8-1.9,3.7C426.8,147.9,427.4,148.3,427.5,148.1z"/>
<path class="st0" d="M1057.4,495.1c1.3,1.7,2.8,1.7,4.8,1.1C1060.8,494.3,1059.1,494.5,1057.4,495.1z"/>
<path class="st0" d="M1128.6,470.3c-1.7,0.4-3,0.6-4.8,0.9C1126,473.3,1127.1,472.7,1128.6,470.3z"/>
<path class="st0" d="M891.6,405.4c0.6,0,0.6-0.6,0.7-1.3c-0.4-0.6-0.6-1.5-1.7-1.3c-0.6,0-0.7,0.4-0.6,0.9
	C890.3,404.7,890.5,405.4,891.6,405.4z"/>
<path class="st0" d="M793.9,438.8c0.4-2.4,0.6-4.7,0.9-6.7c0,0.2-0.2,0.4-0.2,0.4c0-0.2,0.2-0.4,0.2-0.4c1.3-4.1,0.6-8-1.7-12.9
	c-0.7,5.8-0.9,10.4,0.4,15.1C793.6,435.6,793,437.1,793.9,438.8z"/>
<path class="st0" d="M282.3,214.1c-0.6,1.1-0.2,2.1,1.1,2.8c0.7-1.3,0.4-2.2-0.2-3.2C283,213.5,282.3,213.7,282.3,214.1z"/>
<path class="st0" d="M278.6,209.1c0,1.5,0.7,1.9,2.1,1.7c-0.6-0.7,1.1-2.2-0.9-2.4C279.3,208.5,278.6,208.9,278.6,209.1z"/>
<path class="st0" d="M255.3,205.9c0.2,0.2,0.9,0,0.9,0c0.2-1.1-0.4-1.9-1.3-2.6C253.8,204.6,254.1,205.3,255.3,205.9z"/>
<path class="st0" d="M292,237.2c-1.3-1.9-2.1-3.2-4.1-4.1C288.4,235.5,289.6,236.5,292,237.2z"/>
<path class="st0" d="M1216.1,307.9c0-0.2-0.4-0.7-0.6-0.9c-1.3-0.2-2.2,0.4-2.6,1.7C1214.4,309.6,1215.3,309,1216.1,307.9z"/>
<path class="st0" d="M889,496.6c-0.9,0.4-2.1,0.7-3,0.9C888.5,499.2,888.5,499.2,889,496.6z"/>
<path class="st0" d="M1013.6,276.8c1.9,0.4,3,0.4,4.7-0.4C1016.6,274.9,1015.3,275.1,1013.6,276.8z"/>
<path class="st0" d="M987.5,113.8c-0.4,1.7,0.6,2.8,1.5,4.5C989.5,116,989.3,114.7,987.5,113.8z"/>
<path class="st0" d="M1117.8,264.6c1.5-0.4,2.6-0.6,3.2-1.9C1119.1,263,1119.1,263,1117.8,264.6z"/>
<path class="st0" d="M767.6,511.1c-0.6,0.4-1.1,0.4-1.1,1.5c0.2,0.7,1.1,0.4,1.9,0.6c0.7,0.2,1.1-0.4,0.6-1.1
	C768.6,511.7,768.9,510.4,767.6,511.1z"/>
<path class="st0" d="M313.4,442.7c-0.6,0.2-0.9,0.6-0.7,1.3c0.2,0.6,0.4,1.3,1.1,1.1c0.7-0.2,0.6-0.9,0.7-1.5
	C314.6,443.1,314.4,442.5,313.4,442.7z"/>
<path class="st0" d="M869.3,506.5c0,0.2,0.4,0.7,0.6,0.7c1.1-0.2,1.5-1.1,1.7-2.4C870,504.8,869.3,505.4,869.3,506.5z"/>
<path class="st0" d="M102.9,245.8c-0.2,0-0.6,0.2-0.6,0.4c0,1.1,0.6,1.7,1.9,2.1C104.6,246.7,104,246,102.9,245.8z"/>
<path class="st0" d="M699.8,28.2c0-0.2-0.2-0.7-0.6-0.9c-1.7-0.6-0.7,1.9-3.2,1.3C698.3,29.7,699.2,29.5,699.8,28.2z"/>
<path class="st0" d="M884.9,558.1C884.9,558.1,884.9,557.9,884.9,558.1C884.9,557.9,884.7,557.9,884.9,558.1
	C884.7,557.9,884.9,558.1,884.9,558.1z"/>
<path class="st0" d="M886.8,556.4c-1.3-0.2-1.7,0.6-1.9,1.7c0.9,0.2,1.9,0.6,2.2-0.7C887.2,557,887,556.4,886.8,556.4z"/>
<path class="st0" d="M683.7,9.9c-1.1-0.7-2.1-0.7-2.8,0.6C682.1,10.9,683,11.1,683.7,9.9z"/>
<path class="st0" d="M667.7,515.4c-0.2,0.2-0.4,0.7-0.2,0.9c0.7,0.7,1.5,0.4,2.4,0C669.2,515.4,668.6,514.9,667.7,515.4z"/>
<path class="st0" d="M1014.7,340.7c0.7,1.1,1.5,1.7,2.8,0.9C1016.8,340.7,1016,339.8,1014.7,340.7z"/>
<path class="st0" d="M281.4,212.2c0.4,0,0.7-0.7,1.3-1.1c-0.6-0.6-1.3-0.6-1.9-0.4C280.6,211.5,280.2,212.4,281.4,212.2z"/>
<path class="st0" d="M729,91.8c-0.4,0.7,0.7,1.1,1.5,1.1c0.9,0,1.9,1.3,2.4,0.2c0.4-0.6-0.9-0.7-1.5-1.1
	C730.7,91.2,729.2,91.2,729,91.8z"/>
<path class="st0" d="M874.5,503.3c0.4,0.7,1.3,0,2.6-0.6c-0.9-0.2-1.3-0.4-1.7-0.2C875,502.7,873.9,502.4,874.5,503.3z"/>
<path class="st0" d="M567.4,503.7c1.1,0.6,2.1,0.6,3-0.2C569.4,503.3,568.5,502.9,567.4,503.7z"/>
<circle class="st2" cx="115" cy="217" r="17"/>
<circle class="st3" cx="115" cy="217" r="12"/>
<path class="st4" d="M115.2,211.7c0.5,0,1,0.1,1.4,0.2c0.4,0.1,0.8,0.3,1,0.6c0.3,0.3,0.5,0.6,0.7,0.9c0.2,0.4,0.2,0.8,0.2,1.2
	c0,0.4-0.1,0.7-0.2,1c-0.1,0.3-0.2,0.6-0.4,0.9c-0.2,0.3-0.4,0.6-0.6,0.8c-0.2,0.3-0.5,0.5-0.8,0.8l-2,2c0.3-0.1,0.5-0.1,0.8-0.2
	c0.3,0,0.5-0.1,0.7-0.1h1.9c0.2,0,0.4,0.1,0.6,0.2c0.1,0.1,0.2,0.3,0.2,0.5v1.3h-7.2v-0.7c0-0.1,0-0.3,0.1-0.4
	c0.1-0.2,0.2-0.3,0.3-0.4l2.9-3c0.3-0.3,0.5-0.5,0.7-0.7c0.2-0.2,0.3-0.5,0.5-0.7c0.1-0.2,0.2-0.4,0.3-0.7c0.1-0.2,0.1-0.5,0.1-0.7
	c0-0.4-0.1-0.7-0.3-0.9c-0.2-0.2-0.5-0.3-0.9-0.3c-0.2,0-0.3,0-0.4,0.1s-0.3,0.1-0.4,0.2c-0.1,0.1-0.2,0.2-0.3,0.3
	c-0.1,0.1-0.1,0.2-0.2,0.4c-0.1,0.2-0.2,0.4-0.3,0.5c-0.1,0.1-0.3,0.1-0.5,0.1c0,0-0.1,0-0.2,0c-0.1,0-0.1,0-0.2,0l-1.1-0.2
	c0.1-0.5,0.2-1,0.4-1.3c0.2-0.4,0.5-0.7,0.8-0.9c0.3-0.3,0.7-0.4,1.1-0.6C114.3,211.8,114.7,211.7,115.2,211.7z"/>
<circle class="st2" cx="658" cy="303" r="17"/>
<circle class="st3" cx="658" cy="303" r="12"/>
<path class="st4" d="M658.4,297.7c0.5,0,1,0.1,1.3,0.2c0.4,0.1,0.7,0.3,1,0.6c0.3,0.2,0.5,0.5,0.6,0.8c0.1,0.3,0.2,0.7,0.2,1
	c0,0.3,0,0.6-0.1,0.9c-0.1,0.2-0.2,0.5-0.3,0.6c-0.1,0.2-0.3,0.3-0.5,0.5c-0.2,0.1-0.4,0.2-0.6,0.3c1.1,0.4,1.7,1.2,1.7,2.3
	c0,0.5-0.1,1-0.3,1.4c-0.2,0.4-0.5,0.7-0.8,1c-0.3,0.3-0.7,0.5-1.1,0.6c-0.4,0.1-0.9,0.2-1.4,0.2c-0.5,0-0.9-0.1-1.3-0.2
	c-0.4-0.1-0.7-0.3-1-0.5c-0.3-0.2-0.6-0.5-0.8-0.9c-0.2-0.3-0.4-0.8-0.6-1.2l1-0.4c0.1,0,0.2-0.1,0.2-0.1c0.1,0,0.2,0,0.2,0
	c0.1,0,0.3,0,0.4,0.1c0.1,0.1,0.2,0.1,0.3,0.3c0.2,0.4,0.4,0.7,0.7,0.8c0.2,0.2,0.5,0.3,0.8,0.3c0.2,0,0.5,0,0.6-0.1
	c0.2-0.1,0.3-0.2,0.4-0.3c0.1-0.1,0.2-0.3,0.3-0.4c0.1-0.2,0.1-0.3,0.1-0.5c0-0.2,0-0.4,0-0.6c0-0.2-0.1-0.3-0.3-0.5
	c-0.1-0.1-0.4-0.2-0.6-0.3c-0.3-0.1-0.7-0.1-1.2-0.1V302c0.4,0,0.8,0,1-0.1c0.3-0.1,0.5-0.2,0.6-0.3c0.1-0.1,0.2-0.3,0.3-0.4
	c0-0.2,0.1-0.3,0.1-0.5c0-0.4-0.1-0.7-0.3-0.9c-0.2-0.2-0.5-0.3-0.9-0.3c-0.2,0-0.3,0-0.4,0.1s-0.3,0.1-0.4,0.2
	c-0.1,0.1-0.2,0.2-0.3,0.3c-0.1,0.1-0.1,0.2-0.2,0.4c-0.1,0.2-0.2,0.4-0.3,0.5c-0.1,0.1-0.3,0.1-0.5,0.1c0,0-0.1,0-0.2,0
	c-0.1,0-0.1,0-0.2,0l-1.1-0.2c0.1-0.5,0.2-1,0.4-1.3c0.2-0.4,0.5-0.7,0.8-0.9c0.3-0.3,0.7-0.4,1.1-0.6
	C657.5,297.8,657.9,297.7,658.4,297.7z"/>
<circle class="st2" cx="838" cy="325" r="17"/>
<circle class="st3" cx="838" cy="325" r="12"/>
<path class="st4" d="M835.8,328.4h2v-5.1c0-0.3,0-0.5,0-0.8l-1.2,1c-0.1,0.1-0.1,0.1-0.2,0.1c-0.1,0-0.1,0-0.2,0
	c-0.1,0-0.2,0-0.3-0.1c-0.1-0.1-0.2-0.1-0.2-0.2l-0.7-0.9l3.2-2.7h1.8v8.6h1.7v1.6h-5.8V328.4z"/>
<circle class="st2" cx="790" cy="507" r="17"/>
<circle class="st3" cx="790" cy="507" r="12"/>
<path class="st4" d="M792.8,508h1.1v1.2c0,0.1,0,0.2-0.1,0.3c-0.1,0.1-0.2,0.1-0.3,0.1h-0.6v2.3h-1.9v-2.3h-4.1
	c-0.1,0-0.3,0-0.4-0.1c-0.1-0.1-0.2-0.2-0.2-0.3l-0.2-1.1l4.7-6.3h2.1V508z M790.9,505.4c0-0.2,0-0.3,0-0.5c0-0.2,0-0.4,0.1-0.6
	l-2.7,3.8h2.6V505.4z"/>
<circle class="st2" cx="1269" cy="373" r="17"/>
<circle class="st3" cx="1269" cy="373" r="12"/>
<path class="st4" d="M1272,368.7c0,0.1,0,0.3-0.1,0.4c-0.1,0.1-0.1,0.2-0.2,0.3c-0.1,0.1-0.2,0.2-0.4,0.2c-0.2,0-0.4,0.1-0.6,0.1
	h-2.4l-0.3,1.7c0.2,0,0.4-0.1,0.6-0.1c0.2,0,0.3,0,0.5,0c0.5,0,1,0.1,1.4,0.2s0.8,0.4,1,0.7c0.3,0.3,0.5,0.6,0.6,1
	c0.1,0.4,0.2,0.8,0.2,1.2c0,0.5-0.1,1-0.3,1.5c-0.2,0.4-0.5,0.8-0.8,1.2c-0.3,0.3-0.8,0.6-1.2,0.8c-0.5,0.2-1,0.3-1.6,0.3
	c-0.3,0-0.6,0-0.9-0.1c-0.3-0.1-0.6-0.2-0.8-0.3c-0.3-0.1-0.5-0.3-0.7-0.4c-0.2-0.2-0.4-0.3-0.6-0.5l0.7-0.9
	c0.1-0.1,0.2-0.2,0.3-0.2c0.1-0.1,0.2-0.1,0.3-0.1c0.1,0,0.3,0,0.4,0.1c0.1,0.1,0.3,0.2,0.4,0.3c0.2,0.1,0.3,0.2,0.5,0.2
	c0.2,0.1,0.4,0.1,0.7,0.1c0.3,0,0.5,0,0.8-0.1c0.2-0.1,0.4-0.2,0.5-0.4c0.1-0.2,0.2-0.4,0.3-0.6c0.1-0.2,0.1-0.5,0.1-0.7
	c0-0.5-0.1-0.9-0.4-1.1c-0.3-0.3-0.7-0.4-1.2-0.4c-0.4,0-0.9,0.1-1.3,0.3l-1.3-0.4l0.9-5.1h5.2V368.7z"/>
<circle class="st2" cx="559" cy="135" r="17"/>
<circle class="st3" cx="559" cy="135" r="12"/>
<path class="st4" d="M559.8,133.5c0.4,0,0.7,0.1,1.1,0.2c0.4,0.1,0.7,0.3,1,0.6c0.3,0.3,0.5,0.6,0.7,1c0.2,0.4,0.3,0.8,0.3,1.4
	c0,0.5-0.1,0.9-0.3,1.4c-0.2,0.4-0.4,0.8-0.8,1.1c-0.3,0.3-0.7,0.6-1.2,0.8c-0.5,0.2-1,0.3-1.5,0.3c-0.6,0-1.1-0.1-1.5-0.3
	c-0.5-0.2-0.8-0.4-1.2-0.8c-0.3-0.3-0.6-0.7-0.7-1.2c-0.2-0.4-0.2-0.9-0.2-1.5c0-0.5,0.1-1,0.3-1.5c0.2-0.5,0.5-1,0.9-1.5l2.3-3.1
	c0.1-0.1,0.3-0.3,0.5-0.4c0.2-0.1,0.4-0.1,0.7-0.1h1.9l-3,3.6c0,0.1-0.1,0.1-0.1,0.2c0,0.1-0.1,0.1-0.1,0.2c0.2-0.1,0.3-0.1,0.5-0.1
	C559.4,133.6,559.6,133.5,559.8,133.5z M557.5,136.8c0,0.3,0,0.5,0.1,0.7c0.1,0.2,0.2,0.4,0.3,0.5c0.1,0.1,0.3,0.3,0.5,0.3
	c0.2,0.1,0.4,0.1,0.7,0.1c0.2,0,0.4,0,0.6-0.1c0.2-0.1,0.4-0.2,0.5-0.3c0.1-0.1,0.3-0.3,0.3-0.5c0.1-0.2,0.1-0.4,0.1-0.7
	c0-0.3,0-0.5-0.1-0.7c-0.1-0.2-0.2-0.4-0.3-0.5c-0.1-0.1-0.3-0.2-0.5-0.3c-0.2-0.1-0.4-0.1-0.7-0.1c-0.2,0-0.4,0-0.6,0.1
	c-0.2,0.1-0.3,0.2-0.5,0.3c-0.1,0.1-0.2,0.3-0.3,0.5C557.6,136.3,557.5,136.5,557.5,136.8z"/>
<circle class="st5" cx="518" cy="461" r="17"/>
<circle class="st6" cx="518" cy="461" r="12"/>
<path class="st4" d="M518.8,459.5c0.4,0,0.7,0.1,1.1,0.2s0.7,0.3,1,0.6c0.3,0.3,0.5,0.6,0.7,1c0.2,0.4,0.3,0.8,0.3,1.4
	c0,0.5-0.1,0.9-0.3,1.4c-0.2,0.4-0.4,0.8-0.8,1.1c-0.3,0.3-0.7,0.6-1.2,0.8c-0.5,0.2-1,0.3-1.5,0.3c-0.6,0-1.1-0.1-1.5-0.3
	c-0.5-0.2-0.8-0.4-1.2-0.8c-0.3-0.3-0.6-0.7-0.7-1.2c-0.2-0.4-0.2-0.9-0.2-1.5c0-0.5,0.1-1,0.3-1.5c0.2-0.5,0.5-1,0.9-1.5l2.3-3.1
	c0.1-0.1,0.3-0.3,0.5-0.4c0.2-0.1,0.4-0.1,0.7-0.1h1.9l-3,3.6c0,0.1-0.1,0.1-0.1,0.2c0,0.1-0.1,0.1-0.1,0.2c0.2-0.1,0.3-0.1,0.5-0.1
	C518.4,459.6,518.6,459.5,518.8,459.5z M516.5,462.8c0,0.3,0,0.5,0.1,0.7c0.1,0.2,0.2,0.4,0.3,0.5c0.1,0.1,0.3,0.3,0.5,0.3
	c0.2,0.1,0.4,0.1,0.7,0.1c0.2,0,0.4,0,0.6-0.1c0.2-0.1,0.4-0.2,0.5-0.3c0.1-0.1,0.3-0.3,0.3-0.5c0.1-0.2,0.1-0.4,0.1-0.7
	c0-0.3,0-0.5-0.1-0.7c-0.1-0.2-0.2-0.4-0.3-0.5c-0.1-0.1-0.3-0.2-0.5-0.3c-0.2-0.1-0.4-0.1-0.7-0.1c-0.2,0-0.4,0-0.6,0.1
	c-0.2,0.1-0.3,0.2-0.5,0.3c-0.1,0.1-0.2,0.3-0.3,0.5C516.6,462.3,516.5,462.5,516.5,462.8z"/>
</svg>
